<svg xmlns="http://www.w3.org/2000/svg" aria-labelledby="simpleicons-github-icon" role="img" width="24" height="23" style=""><rect id="backgroundrect" width="100%" height="100%" x="0" y="0" fill="none" stroke="none"/><title id="simpleicons-github-icon">GitHub icon</title><g class="currentLayer" style=""><title>Layer 1</title><path d="M12,6.86645508229944e-8 c-6.63,0 -12,5.373 -12,12 c0,5.303 3.438,9.8 8.205,11.385 c0.6000000000000002,0.11300000000000003 0.8200000000000002,-0.258 0.8200000000000002,-0.5770000000000002 c0,-0.2850000000000001 -0.010000000000000004,-1.04 -0.015000000000000006,-2.04 c-3.338,0.7240000000000002 -4.042,-1.61 -4.042,-1.61 C4.422,17.77300006866455 3.633,17.40300006866455 3.633,17.40300006866455 c-1.087,-0.7440000000000002 0.08400000000000003,-0.7290000000000002 0.08400000000000003,-0.7290000000000002 c1.205,0.08400000000000003 1.838,1.236 1.838,1.236 c1.07,1.835 2.809,1.3050000000000002 3.495,0.998 c0.10800000000000003,-0.776 0.4170000000000001,-1.3050000000000002 0.7600000000000002,-1.605 c-2.665,-0.3000000000000001 -5.466,-1.332 -5.466,-5.93 c0,-1.31 0.465,-2.38 1.235,-3.22 c-0.135,-0.3030000000000001 -0.54,-1.5230000000000001 0.10500000000000002,-3.176 c0,0 1.005,-0.3220000000000001 3.3,1.23 c0.9600000000000002,-0.267 1.98,-0.3990000000000002 3,-0.405 c1.02,0.006000000000000004 2.04,0.138 3,0.405 c2.2800000000000002,-1.552 3.285,-1.23 3.285,-1.23 c0.6450000000000002,1.653 0.24000000000000005,2.873 0.12000000000000002,3.176 c0.7650000000000002,0.8400000000000002 1.23,1.9100000000000001 1.23,3.22 c0,4.61 -2.805,5.625 -5.475,5.92 c0.4200000000000001,0.3600000000000001 0.81,1.096 0.81,2.22 c0,1.606 -0.015000000000000006,2.896 -0.015000000000000006,3.286 c0,0.3150000000000001 0.21000000000000005,0.6900000000000004 0.8250000000000002,0.5700000000000002 C20.565,21.79500006866455 24,17.29500006866455 24,12.000000068664551 c0,-6.627 -5.373,-12 -12,-12 " id="svg_1" class="selected" fill="#484848" fill-opacity="1"/></g></svg>