<?xml version="1.0" encoding="utf-8"?>
<!-- Generator: Adobe Illustrator 21.1.0, SVG Export Plug-In . SVG Version: 6.00 Build 0)  -->
<svg version="1.1" id="Layer_1" xmlns="http://www.w3.org/2000/svg" xmlns:xlink="http://www.w3.org/1999/xlink" x="0px" y="0px"
	 viewBox="0 0 25.4 22.5" style="enable-background:new 0 0 25.4 22.5;" xml:space="preserve">
<style type="text/css">
	.st0{fill:#58595B;}
</style>
<g>
	<path class="st0" d="M9.2,5.8v13.4c0,0.2,0,0.4-0.1,0.5c-0.1,0.1-0.2,0.2-0.4,0.2c-0.1,0-0.3,0-0.4-0.1L3,17.1
		c-0.2-0.1-0.3-0.2-0.4-0.4c-0.1-0.2-0.2-0.4-0.2-0.5v-13c0-0.2,0-0.3,0.1-0.4c0.1-0.1,0.2-0.2,0.3-0.2c0.1,0,0.3,0.1,0.5,0.2
		L9.2,5.8C9.2,5.7,9.2,5.7,9.2,5.8z M10,6.9l6.1,9.9l-6.1-3V6.9z M22.9,7.1v12c0,0.2-0.1,0.3-0.2,0.5c-0.1,0.1-0.3,0.2-0.4,0.2
		s-0.4,0-0.5-0.1l-5-2.5L22.9,7.1z M22.8,5.8c0,0-1,1.6-2.9,4.8s-3.1,5-3.4,5.6L12,8.9l3.7-6c0.1-0.2,0.3-0.3,0.6-0.3
		c0.1,0,0.2,0,0.3,0.1L22.8,5.8C22.8,5.7,22.8,5.7,22.8,5.8z"/>
</g>
</svg>
