<?xml version="1.0" encoding="utf-8"?>
<!-- Generator: Adobe Illustrator 21.1.0, SVG Export Plug-In . SVG Version: 6.00 Build 0)  -->
<svg version="1.1" id="Capa_1" xmlns="http://www.w3.org/2000/svg" xmlns:xlink="http://www.w3.org/1999/xlink" x="0px" y="0px"
	 viewBox="0 0 512 512" style="enable-background:new 0 0 512 512;" xml:space="preserve">
<style type="text/css">
	.st0{fill:#595959;}
	.st1{fill:#7C7C7C;}
	.st2{fill:#979797;}
</style>
<g>
	<path class="st0" d="M249.7,345.7c-39.1-0.1-32.3-4.1-33.2,31.9c-0.3,10.8-1.3,21.5-2,32.3c0-19.3,0-38.6,0-57.9
		c-1.3,0-2.7,0.1-4,0.1c1.3,19.9,2.5,39.8,3.8,59.7c-2.9,24.1-26.3,46.2-51,48c-27.7,2-52.1-15.5-60.2-43.2
		c0.7-6.2,2.1-12.4,2.1-18.6c0.1-79.6,0-159.1,0.2-238.7c0-6.2,1.6-12.3,2.4-18.5c14.7,25.4,36.9,35.6,64.7,29.7
		c21.9-4.6,40.8-27.3,43.3-52c2.2-21.1-12.8-47-34.8-54.9c-10-3.6-22.1-1.4-33.2-1.8c3.2-1.6,6.4-4.5,9.6-4.5
		c41.2-0.2,82.4,0,123.5,0.3c2.4,0,4.9,1.2,7.3,1.8c-31.1,0-62.3,0-93.4,0c25.6,2.8,51.1,3,76.7,2.7c7.9-0.1,15.7-1.4,23.6-2.2
		c56.3,8.5,93.5,42.5,112.7,93.5c20.1,53.5,9.5,103.6-31.2,145.7c-4,4.2-7.1,9.3-10.6,13.9c-14.8-21.5-29.3-43.2-44.6-64.4
		c-17.4-24.2-54.1-32.8-76.5-18.6c-28,17.8-36.9,51.3-20.1,79.4C232.2,321.9,241.3,333.6,249.7,345.7z"/>
	<path class="st1" d="M249.7,345.7c-8.4-12.1-17.5-23.8-25-36.4c-16.7-28.1-7.9-61.6,20.1-79.4c22.3-14.2,59.1-5.6,76.5,18.6
		c15.2,21.2,29.7,42.9,44.6,64.4c13.2,18.4,26.5,36.7,39.4,55.3c19.9,28.5,13.4,62.5-15.6,82.9c-24,16.9-57.5,10.2-76.7-16.2
		C291.5,405.4,270.8,375.5,249.7,345.7z"/>
	<path class="st2" d="M147.8,61.8c11.1,0.4,23.2-1.8,33.2,1.8c21.9,7.9,36.9,33.9,34.8,54.9c-2.5,24.7-21.4,47.4-43.3,52
		c-27.8,5.9-50-4.4-64.7-29.7c-1.7-11.9-3.4-23.8-5.1-35.7c2-21.2,16.6-32.8,33.1-42.4C138.9,60.9,143.7,62,147.8,61.8z"/>
	<path class="st0" d="M102.6,105.1c1.7,11.9,3.4,23.8,5.1,35.7c-0.8,6.2-2.4,12.3-2.4,18.5c-0.2,79.6-0.1,159.1-0.2,238.7
		c0,6.2-1.4,12.4-2.1,18.6c-0.8-10-2.4-20.1-2.4-30.1c-0.2-88.9-0.2-177.7-0.1-266.6C100.5,114.9,101.9,110,102.6,105.1z"/>
	<path class="st0" d="M295.1,59.9c-7.9,0.8-15.7,2.1-23.6,2.2c-25.5,0.3-51.1,0.1-76.7-2.7c31.1,0,62.3,0,93.4,0
		C290.5,59.6,292.8,59.7,295.1,59.9z"/>
	<path class="st0" d="M214.3,411.9c-1.3-19.9-2.5-39.8-3.8-59.7c1.3,0,2.7-0.1,4-0.1c0,19.3,0,38.6,0,57.9
		C214.5,410.5,214.4,411.2,214.3,411.9z"/>
	<circle class="st1" cx="157.5" cy="114.5" r="57"/>
	<path class="st0" d="M295.1,71.7c0,0-10.9-1-11.3-1.5c-0.3-0.5-1.2-12.4-1.2-12.4s5.9,0.3,17.9,3L295.1,71.7z"/>
</g>
</svg>
