<?xml version="1.0" encoding="utf-8"?>
<!-- Generator: Adobe Illustrator 21.1.0, SVG Export Plug-In . SVG Version: 6.00 Build 0)  -->
<svg version="1.1" id="Layer_1" xmlns="http://www.w3.org/2000/svg" xmlns:xlink="http://www.w3.org/1999/xlink" x="0px" y="0px"
	 viewBox="0 0 25.4 22.5" style="enable-background:new 0 0 25.4 22.5;" xml:space="preserve">
<style type="text/css">
	.st0{fill:#58595B;}
</style>
<g>
	<g>
		<path class="st0" d="M4.8,8.8c0.6-0.3,1.2-0.7,1.8-1c1.5-0.7,3.1-1.1,4.8-1.2c0.6,0,0.6,0,0.8-0.6c0.5-1.6,1-3.2,1.4-4.8
			c0-0.1,0.1-0.2,0.1-0.3c0.7,0.1,1.4,0.3,2,0.4c0.9,0.2,1.8,0.4,2.8,0.6c0.2,0,0.2,0,0.3-0.1c0.6-0.9,1.4-1.3,2.5-1.1
			c1.1,0.2,1.8,0.8,2,1.9c0.4,1.4-0.5,2.7-1.9,3c-1.3,0.3-2.7-0.6-2.9-2c0-0.1-0.1-0.2-0.2-0.2c-1.1-0.2-2.3-0.5-3.4-0.7
			c0,0-0.1,0-0.1,0c-0.4,1.3-0.8,2.6-1.2,4c2.5,0.2,4.8,0.8,6.9,2.2c0.4-0.3,0.8-0.6,1.3-0.7c1.5-0.3,3.1,0.8,3.3,2.3
			c0.1,1.2-0.3,2.1-1.3,2.8c-0.1,0.1-0.2,0.2-0.1,0.3c0.2,2.5-1,4.3-2.9,5.8c-1.7,1.3-3.7,2-5.8,2.3c-2.7,0.4-5.3,0.1-7.9-0.9
			C5.3,20,3.8,19,2.7,17.3c-0.7-1.1-1.1-2.3-0.9-3.7c0-0.2,0-0.3-0.2-0.4c-1-0.6-1.5-1.8-1.2-2.9c0.2-1.1,1.1-2,2.2-2.2
			C3.2,8,4,8.1,4.8,8.8z M9.1,11.2c-1,0-1.8,0.8-1.7,1.7c0,1,0.8,1.7,1.7,1.7c1,0,1.8-0.8,1.8-1.7C10.8,12,10,11.2,9.1,11.2z
			 M14.6,13c0,1,0.8,1.8,1.7,1.8c1,0,1.8-0.8,1.8-1.8c0-1-0.8-1.7-1.7-1.7C15.4,11.2,14.6,12,14.6,13z M8.5,17.5
			c2.5,2.3,6.4,2,8.5,0c-0.2-0.2-0.4-0.4-0.7-0.7c-1,0.9-2.2,1.3-3.6,1.3c-1.3,0-2.5-0.4-3.6-1.3C8.9,17.1,8.7,17.3,8.5,17.5z
			 M23.2,12c0.7-0.5,0.8-1.4,0.3-2c-0.5-0.6-1.4-0.7-1.9-0.2C22.3,10.4,22.9,11.1,23.2,12z M2.2,12c0.3-0.9,0.9-1.6,1.6-2.2
			C3.2,9.3,2.3,9.4,1.8,10C1.4,10.7,1.5,11.6,2.2,12z M21.9,3.1c0-0.5-0.4-0.9-0.9-0.9c-0.5,0-0.9,0.4-0.9,0.9C20.1,3.6,20.5,4,21,4
			C21.5,4,21.9,3.6,21.9,3.1z"/>
	</g>
</g>
</svg>
