<?xml version="1.0" encoding="utf-8"?>
<!-- Generator: Adobe Illustrator 21.1.0, SVG Export Plug-In . SVG Version: 6.00 Build 0)  -->
<svg version="1.1" id="Layer_1" xmlns="http://www.w3.org/2000/svg" xmlns:xlink="http://www.w3.org/1999/xlink" x="0px" y="0px"
	 viewBox="0 0 25.4 22.5" style="enable-background:new 0 0 25.4 22.5;" xml:space="preserve">
<style type="text/css">
	.st0{fill:#58595B;}
</style>
<g>
	<g>
		<path class="st0" d="M2.5,17.6c2.3,0.2,4.3-0.4,6.1-1.7c-1.9-0.2-3.2-1.1-3.9-2.9c0.6,0.1,1.2,0.1,1.9-0.1c-1-0.2-1.8-0.7-2.4-1.5
			c-0.6-0.8-0.9-1.7-0.9-2.7C3.9,9,4.5,9.2,5.1,9.2C4.2,8.6,3.6,7.7,3.4,6.7c-0.2-1.1-0.1-2.1,0.5-3C6.1,6.3,9,7.8,12.5,8
			c0-0.1,0-0.1,0-0.2c-0.2-1.3,0-2.5,0.9-3.5C14.5,3.1,16,2.6,17.7,3c0.7,0.2,1.4,0.5,1.9,1.1c0.1,0.1,0.2,0.1,0.3,0.1
			c0.8-0.2,1.6-0.5,2.3-0.9c0,0,0.1,0,0.2-0.1c-0.1,0.5-0.4,0.9-0.7,1.3c-0.3,0.4-0.7,0.7-1.1,1c0.2,0,0.4-0.1,0.6-0.1
			c0.2,0,0.4-0.1,0.6-0.1c0.2-0.1,0.4-0.1,0.6-0.2c0.2-0.1,0.4-0.1,0.6-0.2c-0.2,0.2-0.3,0.4-0.5,0.6c-0.4,0.5-0.9,1-1.5,1.4
			c-0.1,0.1-0.1,0.1-0.1,0.2c0.1,2.8-0.7,5.3-2.4,7.5c-1.3,1.8-3,3.1-5,4c-1.6,0.6-3.3,0.9-5,0.8c-1.5-0.1-3-0.4-4.4-1
			C3.5,18.2,3,17.9,2.5,17.6C2.5,17.7,2.5,17.6,2.5,17.6z"/>
	</g>
</g>
</svg>
