<?xml version="1.0" encoding="utf-8"?>
<!-- Generator: Adobe Illustrator 21.1.0, SVG Export Plug-In . SVG Version: 6.00 Build 0)  -->
<svg version="1.1" id="Layer_1" xmlns="http://www.w3.org/2000/svg" xmlns:xlink="http://www.w3.org/1999/xlink" x="0px" y="0px"
	 viewBox="0 0 229.3 157.3" style="enable-background:new 0 0 229.3 157.3;" xml:space="preserve">
<style type="text/css">
	.st0{clip-path:url(#SVGID_3_);fill:#2E398E;}
	.st1{fill:#FFFFFF;}
	.st2{fill:#2E398E;}
</style>
<g>
	<g>
		<path d="M9.2,145v-7.5c0-0.1,0.1-0.2,0.2-0.3c0.1-0.1,0.3-0.1,0.5-0.1h2c0.8,0,1.5,0.2,2,0.6c0.5,0.4,0.7,1.1,0.7,2v3.1
			c0,0.9-0.2,1.6-0.7,2c-0.5,0.4-1.1,0.6-2,0.6h-2c-0.2,0-0.3,0-0.5-0.1C9.3,145.2,9.2,145.1,9.2,145z M10.7,144.1h1.2
			c0.8,0,1.2-0.4,1.2-1.3v-3.1c0-0.9-0.4-1.3-1.2-1.3h-1.2V144.1z"/>
		<path d="M17.6,144.9v-7.5c0-0.1,0.1-0.3,0.2-0.3c0.1-0.1,0.3-0.1,0.5-0.1h4.1c0.2,0,0.3,0.1,0.4,0.2c0.1,0.1,0.1,0.3,0.1,0.4
			c0,0.2,0,0.3-0.1,0.5c-0.1,0.1-0.2,0.2-0.3,0.2h-3.3v2.3h1.7c0.1,0,0.3,0.1,0.3,0.2c0.1,0.1,0.1,0.3,0.1,0.4c0,0.1,0,0.3-0.1,0.4
			c-0.1,0.1-0.2,0.2-0.4,0.2h-1.7v2.3h3.3c0.1,0,0.3,0.1,0.3,0.2c0.1,0.1,0.1,0.3,0.1,0.5c0,0.2,0,0.3-0.1,0.4
			c-0.1,0.1-0.2,0.2-0.4,0.2h-4.1c-0.2,0-0.3,0-0.5-0.1C17.7,145.2,17.6,145.1,17.6,144.9z"/>
		<path d="M25.5,142.9v-3.2c0-0.9,0.2-1.6,0.7-2c0.5-0.4,1.1-0.6,1.9-0.6c0.8,0,1.5,0.2,2,0.6c0.5,0.4,0.8,0.9,0.8,1.6
			c0,0.3-0.1,0.5-0.2,0.6c-0.1,0.1-0.3,0.2-0.6,0.2c-0.5,0-0.7-0.2-0.7-0.5c0-0.1,0-0.2,0-0.3c0-0.1,0-0.2-0.1-0.3
			c0-0.1-0.1-0.2-0.2-0.3c-0.1-0.1-0.2-0.2-0.3-0.2c-0.2-0.1-0.3-0.1-0.5-0.1c-0.8,0-1.2,0.4-1.2,1.3v3.2c0,0.9,0.4,1.3,1.2,1.3
			c0.2,0,0.5,0,0.6-0.1c0.2-0.1,0.3-0.2,0.4-0.3c0.1-0.1,0.1-0.3,0.1-0.4c0-0.1,0-0.2,0.1-0.4c0-0.3,0.3-0.5,0.7-0.5
			c0.3,0,0.5,0.1,0.6,0.2c0.1,0.1,0.2,0.3,0.2,0.6c0,0.7-0.3,1.2-0.8,1.7c-0.5,0.4-1.2,0.6-2,0.6c-0.8,0-1.4-0.2-1.9-0.6
			C25.7,144.4,25.5,143.8,25.5,142.9z"/>
		<path d="M33.7,144.9v-7.5c0-0.1,0.1-0.3,0.2-0.3c0.1-0.1,0.3-0.1,0.5-0.1h4.1c0.2,0,0.3,0.1,0.4,0.2c0.1,0.1,0.1,0.3,0.1,0.4
			c0,0.2,0,0.3-0.1,0.5c-0.1,0.1-0.2,0.2-0.3,0.2h-3.3v2.3H37c0.1,0,0.3,0.1,0.3,0.2c0.1,0.1,0.1,0.3,0.1,0.4c0,0.1,0,0.3-0.1,0.4
			c-0.1,0.1-0.2,0.2-0.4,0.2h-1.7v2.3h3.3c0.1,0,0.3,0.1,0.3,0.2c0.1,0.1,0.1,0.3,0.1,0.5c0,0.2,0,0.3-0.1,0.4
			c-0.1,0.1-0.2,0.2-0.4,0.2h-4.1c-0.2,0-0.3,0-0.5-0.1C33.8,145.2,33.7,145.1,33.7,144.9z"/>
		<path d="M41.7,144.9v-7.5c0-0.2,0.1-0.3,0.2-0.4c0.1-0.1,0.3-0.1,0.5-0.1c0.3,0,0.5,0,0.6,0.2c0.1,0.1,0.3,0.3,0.5,0.6l2.2,4.3
			v-4.6c0-0.2,0.1-0.3,0.2-0.3c0.1-0.1,0.3-0.1,0.5-0.1c0.2,0,0.4,0,0.5,0.1c0.1,0.1,0.2,0.2,0.2,0.3v7.5c0,0.1-0.1,0.3-0.2,0.3
			c-0.2,0.1-0.3,0.1-0.5,0.1c-0.4,0-0.7-0.2-0.9-0.5l-2.5-4.6v4.6c0,0.1-0.1,0.3-0.2,0.3c-0.1,0.1-0.3,0.1-0.5,0.1
			c-0.2,0-0.4,0-0.5-0.1C41.8,145.2,41.7,145.1,41.7,144.9z"/>
		<path d="M50.1,137.7c0-0.2,0-0.3,0.1-0.5c0.1-0.1,0.2-0.2,0.4-0.2h4.9c0.2,0,0.3,0.1,0.3,0.2c0.1,0.1,0.1,0.3,0.1,0.5
			c0,0.2,0,0.3-0.1,0.5c-0.1,0.1-0.2,0.2-0.3,0.2h-1.7v6.6c0,0.1-0.1,0.3-0.2,0.3c-0.1,0.1-0.3,0.1-0.5,0.1c-0.2,0-0.4,0-0.5-0.1
			c-0.1-0.1-0.2-0.2-0.2-0.3v-6.6h-1.7c-0.1,0-0.3-0.1-0.3-0.2C50.1,138,50.1,137.9,50.1,137.7z"/>
		<path d="M58.6,144.9v-7.5c0-0.1,0-0.2,0.1-0.3c0.1-0.1,0.2-0.1,0.3-0.1h2.3c1.8,0,2.7,0.8,2.7,2.4c0,0.6-0.1,1.1-0.4,1.5
			c-0.3,0.4-0.6,0.6-1.1,0.8l1.5,2.8c0,0,0.1,0.1,0.1,0.2c0,0.2-0.1,0.4-0.3,0.5c-0.2,0.2-0.4,0.2-0.6,0.2c-0.2,0-0.4-0.1-0.5-0.4
			l-1.6-3.2h-1v3c0,0.1-0.1,0.3-0.2,0.3c-0.1,0.1-0.3,0.1-0.5,0.1c-0.2,0-0.4,0-0.5-0.1C58.7,145.2,58.6,145.1,58.6,144.9z
			 M60.1,140.8h1.3c0.8,0,1.2-0.4,1.2-1.2c0-0.8-0.4-1.2-1.2-1.2h-1.3V140.8z"/>
		<path d="M66.6,144.8c0,0,0-0.1,0-0.1l2.2-7.2c0-0.1,0.2-0.3,0.3-0.3c0.2-0.1,0.4-0.1,0.6-0.1c0.2,0,0.4,0,0.6,0.1
			c0.2,0.1,0.3,0.2,0.3,0.4l2.2,7.2c0,0.1,0,0.1,0,0.1c0,0.2-0.1,0.3-0.3,0.4c-0.2,0.1-0.4,0.2-0.6,0.2c-0.3,0-0.5-0.1-0.5-0.3
			l-0.4-1.5h-2.5l-0.4,1.5c-0.1,0.2-0.2,0.3-0.6,0.3c-0.3,0-0.5-0.1-0.7-0.2C66.7,145.1,66.6,144.9,66.6,144.8z M69,142.4h2l-1-3.5
			L69,142.4z"/>
		<path d="M75.9,144.9v-7.5c0-0.2,0.1-0.3,0.2-0.3c0.1-0.1,0.3-0.1,0.5-0.1c0.2,0,0.4,0,0.5,0.1c0.1,0.1,0.2,0.2,0.2,0.3v6.6h2.8
			c0.1,0,0.2,0.1,0.3,0.2c0.1,0.1,0.1,0.3,0.1,0.5c0,0.2,0,0.3-0.1,0.5c-0.1,0.1-0.2,0.2-0.3,0.2h-3.6c-0.2,0-0.3,0-0.5-0.1
			C75.9,145.2,75.9,145.1,75.9,144.9z"/>
		<path d="M83.4,144.9v-7.5c0-0.2,0.1-0.3,0.2-0.3c0.1-0.1,0.3-0.1,0.5-0.1c0.2,0,0.4,0,0.5,0.1c0.1,0.1,0.2,0.2,0.2,0.3v7.5
			c0,0.1-0.1,0.3-0.2,0.3c-0.2,0.1-0.3,0.1-0.5,0.1c-0.2,0-0.4,0-0.5-0.1C83.4,145.2,83.4,145.1,83.4,144.9z"/>
		<path d="M87.6,145c0-0.2,0.1-0.3,0.2-0.5l3.4-6.2h-2.9c-0.1,0-0.3-0.1-0.3-0.2c-0.1-0.1-0.1-0.3-0.1-0.5c0-0.2,0-0.3,0.1-0.5
			c0.1-0.1,0.2-0.2,0.3-0.2h4.4c0.3,0,0.4,0.1,0.4,0.4c0,0.2-0.1,0.3-0.2,0.5l-3.4,6.1h3.3c0.1,0,0.3,0.1,0.3,0.2
			c0.1,0.1,0.1,0.3,0.1,0.5c0,0.2,0,0.3-0.1,0.5c-0.1,0.1-0.2,0.2-0.3,0.2h-4.8C87.8,145.4,87.6,145.3,87.6,145z"/>
		<path d="M96.1,144.9v-7.5c0-0.1,0.1-0.3,0.2-0.3c0.1-0.1,0.3-0.1,0.5-0.1h4.1c0.2,0,0.3,0.1,0.4,0.2c0.1,0.1,0.1,0.3,0.1,0.4
			c0,0.2,0,0.3-0.1,0.5c-0.1,0.1-0.2,0.2-0.3,0.2h-3.3v2.3h1.7c0.1,0,0.3,0.1,0.3,0.2c0.1,0.1,0.1,0.3,0.1,0.4c0,0.1,0,0.3-0.1,0.4
			c-0.1,0.1-0.2,0.2-0.4,0.2h-1.7v2.3h3.3c0.1,0,0.3,0.1,0.3,0.2c0.1,0.1,0.1,0.3,0.1,0.5c0,0.2,0,0.3-0.1,0.4
			c-0.1,0.1-0.2,0.2-0.4,0.2h-4.1c-0.2,0-0.3,0-0.5-0.1C96.2,145.2,96.1,145.1,96.1,144.9z"/>
		<path d="M104.1,145v-7.5c0-0.1,0.1-0.2,0.2-0.3c0.1-0.1,0.3-0.1,0.5-0.1h2c0.8,0,1.5,0.2,2,0.6c0.5,0.4,0.7,1.1,0.7,2v3.1
			c0,0.9-0.2,1.6-0.7,2c-0.5,0.4-1.1,0.6-2,0.6h-2c-0.2,0-0.3,0-0.5-0.1C104.2,145.2,104.1,145.1,104.1,145z M105.6,144.1h1.2
			c0.8,0,1.2-0.4,1.2-1.3v-3.1c0-0.9-0.4-1.3-1.2-1.3h-1.2V144.1z"/>
		<path d="M116.3,144.9v-7.2c0-0.3,0.1-0.4,0.2-0.6c0.1-0.1,0.3-0.2,0.5-0.2c0.3,0,0.5,0,0.7,0.2c0.2,0.1,0.3,0.3,0.5,0.6l1.4,2.6
			l1.4-2.6c0.2-0.3,0.4-0.5,0.5-0.6c0.2-0.1,0.4-0.2,0.7-0.2c0.2,0,0.4,0.1,0.5,0.2c0.1,0.1,0.2,0.3,0.2,0.6v7.2
			c0,0.1-0.1,0.3-0.2,0.3c-0.1,0.1-0.3,0.1-0.5,0.1c-0.2,0-0.4,0-0.5-0.1c-0.1-0.1-0.2-0.2-0.2-0.3V140l-1.3,2.4
			c-0.1,0.2-0.3,0.3-0.5,0.3c-0.2,0-0.4-0.1-0.5-0.3l-1.3-2.5v5c0,0.1-0.1,0.3-0.2,0.3c-0.1,0.1-0.3,0.1-0.5,0.1
			c-0.2,0-0.4,0-0.5-0.1C116.4,145.2,116.3,145.1,116.3,144.9z"/>
		<path d="M125.6,144.8c0,0,0-0.1,0-0.1l2.2-7.2c0-0.1,0.2-0.3,0.3-0.3c0.2-0.1,0.4-0.1,0.6-0.1c0.2,0,0.4,0,0.6,0.1
			c0.2,0.1,0.3,0.2,0.3,0.4l2.2,7.2c0,0.1,0,0.1,0,0.1c0,0.2-0.1,0.3-0.3,0.4c-0.2,0.1-0.4,0.2-0.6,0.2c-0.3,0-0.5-0.1-0.5-0.3
			l-0.4-1.5h-2.5l-0.4,1.5c-0.1,0.2-0.3,0.3-0.6,0.3c-0.2,0-0.5-0.1-0.7-0.2C125.7,145.1,125.6,144.9,125.6,144.8z M128,142.4h2
			l-1-3.5L128,142.4z"/>
		<path d="M134.8,144.9v-7.5c0-0.1,0-0.2,0.1-0.3c0.1-0.1,0.2-0.1,0.3-0.1h2.3c1.8,0,2.7,0.8,2.7,2.4c0,0.6-0.1,1.1-0.4,1.5
			c-0.3,0.4-0.6,0.6-1.1,0.8l1.5,2.8c0,0,0.1,0.1,0.1,0.2c0,0.2-0.1,0.4-0.3,0.5c-0.2,0.2-0.4,0.2-0.6,0.2c-0.2,0-0.4-0.1-0.5-0.4
			l-1.6-3.2h-1v3c0,0.1-0.1,0.3-0.2,0.3c-0.1,0.1-0.3,0.1-0.5,0.1c-0.2,0-0.4,0-0.5-0.1C134.9,145.2,134.8,145.1,134.8,144.9z
			 M136.3,140.8h1.3c0.8,0,1.2-0.4,1.2-1.2c0-0.8-0.4-1.2-1.2-1.2h-1.3V140.8z"/>
		<path d="M143.2,142.9v-3.2c0-0.9,0.2-1.6,0.7-2c0.5-0.4,1.1-0.6,1.9-0.6c0.8,0,1.5,0.2,2,0.6c0.5,0.4,0.8,0.9,0.8,1.6
			c0,0.3-0.1,0.5-0.2,0.6c-0.1,0.1-0.3,0.1-0.6,0.1c-0.5,0-0.7-0.2-0.7-0.5c0-0.3-0.1-0.6-0.3-0.8c-0.2-0.2-0.5-0.3-0.9-0.3
			c-0.8,0-1.2,0.4-1.2,1.3v3.2c0,0.9,0.4,1.3,1.2,1.3c0.4,0,0.7-0.1,0.9-0.3c0.2-0.2,0.3-0.6,0.3-1v-0.7h-0.9
			c-0.1,0-0.3-0.1-0.3-0.2c-0.1-0.1-0.1-0.3-0.1-0.4c0-0.2,0-0.3,0.1-0.4c0.1-0.1,0.2-0.2,0.3-0.2h2c0.1,0,0.3,0,0.3,0.1
			c0.1,0.1,0.1,0.2,0.1,0.3v1.4c0,0.9-0.2,1.6-0.7,2c-0.5,0.4-1.1,0.6-2,0.6c-0.8,0-1.5-0.2-2-0.6
			C143.4,144.4,143.2,143.8,143.2,142.9z"/>
		<path d="M151.5,144.9v-7.5c0-0.2,0.1-0.3,0.2-0.3c0.1-0.1,0.3-0.1,0.5-0.1c0.2,0,0.4,0,0.5,0.1c0.1,0.1,0.2,0.2,0.2,0.3v7.5
			c0,0.1-0.1,0.3-0.2,0.3c-0.2,0.1-0.3,0.1-0.5,0.1c-0.2,0-0.4,0-0.5-0.1C151.6,145.2,151.5,145.1,151.5,144.9z"/>
		<path d="M156.1,144.9v-7.5c0-0.2,0.1-0.3,0.2-0.4c0.1-0.1,0.3-0.1,0.5-0.1c0.3,0,0.5,0,0.6,0.2c0.1,0.1,0.3,0.3,0.5,0.6l2.2,4.3
			v-4.6c0-0.2,0.1-0.3,0.2-0.3c0.1-0.1,0.3-0.1,0.5-0.1s0.4,0,0.5,0.1c0.1,0.1,0.2,0.2,0.2,0.3v7.5c0,0.1-0.1,0.3-0.2,0.3
			c-0.1,0.1-0.3,0.1-0.5,0.1c-0.4,0-0.7-0.2-0.9-0.5l-2.5-4.6v4.6c0,0.1-0.1,0.3-0.2,0.3c-0.2,0.1-0.3,0.1-0.5,0.1
			c-0.2,0-0.4,0-0.5-0.1C156.2,145.2,156.1,145.1,156.1,144.9z"/>
		<path d="M168.1,137.7c0-0.2,0-0.3,0.1-0.5c0.1-0.1,0.2-0.2,0.4-0.2h4.9c0.2,0,0.3,0.1,0.4,0.2c0.1,0.1,0.1,0.3,0.1,0.5
			c0,0.2,0,0.3-0.1,0.5c-0.1,0.1-0.2,0.2-0.3,0.2h-1.7v6.6c0,0.1-0.1,0.3-0.2,0.3c-0.2,0.1-0.3,0.1-0.5,0.1c-0.2,0-0.4,0-0.5-0.1
			c-0.1-0.1-0.2-0.2-0.2-0.3v-6.6h-1.7c-0.1,0-0.3-0.1-0.3-0.2C168.1,138,168.1,137.9,168.1,137.7z"/>
		<path d="M176.6,144.9v-7.5c0-0.1,0-0.2,0.1-0.3c0.1-0.1,0.2-0.1,0.3-0.1h2.3c1.8,0,2.7,0.8,2.7,2.4c0,0.6-0.1,1.1-0.4,1.5
			c-0.3,0.4-0.6,0.6-1.1,0.8l1.5,2.8c0,0,0.1,0.1,0.1,0.2c0,0.2-0.1,0.4-0.3,0.5c-0.2,0.2-0.4,0.2-0.6,0.2c-0.2,0-0.4-0.1-0.5-0.4
			l-1.6-3.2h-1v3c0,0.1-0.1,0.3-0.2,0.3c-0.1,0.1-0.3,0.1-0.5,0.1c-0.2,0-0.4,0-0.5-0.1C176.7,145.2,176.6,145.1,176.6,144.9z
			 M178.1,140.8h1.3c0.8,0,1.2-0.4,1.2-1.2c0-0.8-0.4-1.2-1.2-1.2h-1.3V140.8z"/>
		<path d="M184.6,144.8c0,0,0-0.1,0-0.1l2.2-7.2c0-0.1,0.2-0.3,0.3-0.3c0.2-0.1,0.4-0.1,0.6-0.1c0.2,0,0.4,0,0.6,0.1
			c0.2,0.1,0.3,0.2,0.3,0.4l2.2,7.2c0,0.1,0,0.1,0,0.1c0,0.2-0.1,0.3-0.3,0.4s-0.4,0.2-0.6,0.2c-0.3,0-0.5-0.1-0.5-0.3l-0.4-1.5
			h-2.5l-0.4,1.5c-0.1,0.2-0.3,0.3-0.6,0.3c-0.2,0-0.5-0.1-0.7-0.2C184.7,145.1,184.6,144.9,184.6,144.8z M187,142.4h2l-1-3.5
			L187,142.4z"/>
		<path d="M193.9,145v-7.5c0-0.1,0.1-0.2,0.2-0.3c0.1-0.1,0.3-0.1,0.5-0.1h2c0.8,0,1.5,0.2,2,0.6c0.5,0.4,0.7,1.1,0.7,2v3.1
			c0,0.9-0.2,1.6-0.7,2c-0.5,0.4-1.1,0.6-2,0.6h-2c-0.2,0-0.3,0-0.5-0.1C193.9,145.2,193.9,145.1,193.9,145z M195.4,144.1h1.2
			c0.8,0,1.2-0.4,1.2-1.3v-3.1c0-0.9-0.4-1.3-1.2-1.3h-1.2V144.1z"/>
		<path d="M202.3,144.9v-7.5c0-0.2,0.1-0.3,0.2-0.3c0.1-0.1,0.3-0.1,0.5-0.1c0.2,0,0.4,0,0.5,0.1c0.1,0.1,0.2,0.2,0.2,0.3v7.5
			c0,0.1-0.1,0.3-0.2,0.3c-0.2,0.1-0.3,0.1-0.5,0.1c-0.2,0-0.4,0-0.5-0.1C202.4,145.2,202.3,145.1,202.3,144.9z"/>
		<path d="M206.9,144.9v-7.5c0-0.2,0.1-0.3,0.2-0.4c0.1-0.1,0.3-0.1,0.5-0.1c0.3,0,0.5,0,0.6,0.2c0.1,0.1,0.3,0.3,0.5,0.6l2.2,4.3
			v-4.6c0-0.2,0.1-0.3,0.2-0.3c0.1-0.1,0.3-0.1,0.5-0.1c0.2,0,0.4,0,0.5,0.1c0.1,0.1,0.2,0.2,0.2,0.3v7.5c0,0.1-0.1,0.3-0.2,0.3
			c-0.1,0.1-0.3,0.1-0.5,0.1c-0.4,0-0.7-0.2-0.9-0.5l-2.5-4.6v4.6c0,0.1-0.1,0.3-0.2,0.3c-0.2,0.1-0.3,0.1-0.5,0.1
			c-0.2,0-0.4,0-0.5-0.1C207,145.2,206.9,145.1,206.9,144.9z"/>
		<path d="M215.5,142.9v-3.2c0-0.9,0.2-1.6,0.7-2c0.5-0.4,1.1-0.6,1.9-0.6c0.8,0,1.5,0.2,2,0.6c0.5,0.4,0.8,0.9,0.8,1.6
			c0,0.3-0.1,0.5-0.2,0.6c-0.1,0.1-0.3,0.1-0.6,0.1c-0.5,0-0.7-0.2-0.7-0.5c0-0.3-0.1-0.6-0.3-0.8c-0.2-0.2-0.5-0.3-0.9-0.3
			c-0.8,0-1.2,0.4-1.2,1.3v3.2c0,0.9,0.4,1.3,1.2,1.3c0.4,0,0.7-0.1,0.9-0.3c0.2-0.2,0.3-0.6,0.3-1v-0.7h-0.9
			c-0.1,0-0.3-0.1-0.3-0.2c-0.1-0.1-0.1-0.3-0.1-0.4c0-0.2,0-0.3,0.1-0.4c0.1-0.1,0.2-0.2,0.3-0.2h2c0.1,0,0.3,0,0.3,0.1
			c0.1,0.1,0.1,0.2,0.1,0.3v1.4c0,0.9-0.2,1.6-0.7,2c-0.5,0.4-1.1,0.6-2,0.6c-0.8,0-1.5-0.2-2-0.6
			C215.8,144.4,215.5,143.8,215.5,142.9z"/>
	</g>
	<g>
		<g>
			<defs>
				<path id="SVGID_1_" d="M85.8,6.7c-1,0-1.9,0.8-1.9,1.9v38.9C84,63.3,96.7,76,112.4,76h5.3c15.7,0,28.5-12.7,28.5-28.5V35.2
					c0-15.7-12.7-28.5-28.5-28.5H85.8z"/>
			</defs>
			<linearGradient id="SVGID_2_" gradientUnits="userSpaceOnUse" x1="62.8819" y1="85.7726" x2="132.1208" y2="16.5337">
				<stop  offset="0" style="stop-color:#2D3079"/>
				<stop  offset="0.1188" style="stop-color:#2C327E"/>
				<stop  offset="0.5295" style="stop-color:#283A91"/>
				<stop  offset="1" style="stop-color:#495FAB"/>
			</linearGradient>
			<use xlink:href="#SVGID_1_"  style="overflow:visible;fill:url(#SVGID_2_);"/>
			<clipPath id="SVGID_3_">
				<use xlink:href="#SVGID_1_"  style="overflow:visible;"/>
			</clipPath>
			<polygon class="st0" points="49.3,41.4 115.1,-24.4 180.8,41.4 115.1,107.1 			"/>
		</g>
		<path class="st1" d="M111.2,62.4c-8.4,0-15.3-6.9-15.3-15.3V21.8c0-0.8,0.6-1.4,1.4-1.4c0.8,0,1.4,0.6,1.4,1.4V47
			c0,6.9,5.6,12.5,12.5,12.5c0.8,0,1.4,0.6,1.4,1.4C112.6,61.7,111.9,62.4,111.2,62.4"/>
		<path class="st1" d="M119,20.4c-0.8,0-1.4,0.6-1.4,1.4V61c0,0.8,0.6,1.4,1.4,1.4c8.4,0,15.3-6.9,15.3-15.3V35.7
			C134.3,27.3,127.4,20.4,119,20.4 M131.5,47c0,6.4-4.9,11.8-11.1,12.5V23.3c6.3,0.7,11.1,6,11.1,12.4V47z"/>
	</g>
	<g>
		<path class="st2" d="M9.2,96.6c0-0.4,0.3-0.8,0.8-0.8h3.8c0.4,0,0.8,0.4,0.8,0.8v22.9h10.4c0.4,0,0.8,0.4,0.8,0.8v3.3
			c0,0.4-0.3,0.8-0.8,0.8H10c-0.5,0-0.8-0.4-0.8-0.8V96.6z"/>
		<path class="st2" d="M33,96.6c0-0.4,0.3-0.8,0.8-0.8h16.6c0.4,0,0.8,0.4,0.8,0.8v3.3c0,0.4-0.3,0.8-0.8,0.8H38.3v6.7h10.1
			c0.4,0,0.8,0.4,0.8,0.8v3.4c0,0.4-0.4,0.8-0.8,0.8H38.3v7.1h12.1c0.4,0,0.8,0.4,0.8,0.8v3.3c0,0.4-0.3,0.8-0.8,0.8H33.8
			c-0.4,0-0.8-0.4-0.8-0.8V96.6z"/>
		<path class="st2" d="M58.5,96.5c0-0.4,0.4-0.7,0.8-0.7h1l17,18h0V97c0-0.4,0.3-0.8,0.8-0.8h3.8c0.4,0,0.8,0.4,0.8,0.8v26.6
			c0,0.4-0.4,0.7-0.8,0.7h-1l-17-17.9h0v17.1c0,0.4-0.3,0.8-0.8,0.8h-3.7c-0.4,0-0.8-0.4-0.8-0.8V96.5z"/>
		<path class="st2" d="M90,96.6c0-0.4,0.3-0.8,0.7-0.8h9.7c7.9,0,14.3,6.4,14.3,14.2c0,7.9-6.4,14.3-14.3,14.3h-9.7
			c-0.4,0-0.7-0.4-0.7-0.8V96.6z M99.9,119.3c5.3,0,9.2-4,9.2-9.3c0-5.3-3.9-9.3-9.2-9.3h-4.6v18.6H99.9z"/>
		<path class="st2" d="M121.3,96.6c0-0.4,0.3-0.8,0.8-0.8h11.7c4.9,0,8.9,3.9,8.9,8.8c0,3.8-2.5,6.8-6,8.2l5.9,10.4
			c0.3,0.5,0,1.2-0.7,1.2h-4.3c-0.4,0-0.6-0.2-0.7-0.4l-5.8-10.8h-4.5v10.4c0,0.4-0.4,0.8-0.8,0.8H122c-0.5,0-0.8-0.4-0.8-0.8V96.6z
			 M133.3,108.8c2.2,0,4-1.9,4-4.2c0-2.2-1.9-4-4-4h-6.7v8.1H133.3z"/>
		<path class="st2" d="M183.5,96.6c0-0.4,0.4-0.8,0.8-0.8h3.8c0.4,0,0.8,0.4,0.8,0.8v27c0,0.4-0.4,0.8-0.8,0.8h-3.8
			c-0.4,0-0.8-0.4-0.8-0.8V96.6z"/>
		<path class="st2" d="M162.7,95.8c7.9,0,14.3,6.4,14.3,14.3c0,7.9-6.3,14.2-14.3,14.2c-7.9,0-14.2-6.3-14.2-14.2
			C148.5,102.2,154.8,95.8,162.7,95.8 M162.7,119.4c5.1,0,9.3-4.2,9.3-9.3c0-5.1-4.2-9.4-9.3-9.4c-5.1,0-9.3,4.3-9.3,9.4
			C153.4,115.2,157.6,119.4,162.7,119.4"/>
		<path class="st2" d="M196.2,96.6c0-0.4,0.3-0.8,0.7-0.8h9.7c7.9,0,14.3,6.4,14.3,14.2c0,7.9-6.4,14.3-14.3,14.3h-9.7
			c-0.4,0-0.7-0.4-0.7-0.8V96.6z M206.1,119.3c5.3,0,9.2-4,9.2-9.3c0-5.3-3.9-9.3-9.2-9.3h-4.6v18.6H206.1z"/>
		<rect x="183.5" y="109.7" class="st2" width="0.8" height="0.8"/>
	</g>
</g>
</svg>
