<?xml version="1.0" encoding="utf-8"?>
<!-- Generator: Adobe Illustrator 21.1.0, SVG Export Plug-In . SVG Version: 6.00 Build 0)  -->
<svg version="1.1" id="Layer_1" xmlns="http://www.w3.org/2000/svg" xmlns:xlink="http://www.w3.org/1999/xlink" x="0px" y="0px"
	 viewBox="0 0 282 235.5" style="enable-background:new 0 0 282 235.5;" xml:space="preserve">
<style type="text/css">
	.st0{fill:url(#SVGID_1_);}
	.st1{clip-path:url(#SVGID_3_);}
	.st2{fill:none;stroke:url(#SVGID_4_);stroke-width:2.4943;stroke-miterlimit:10;}
	.st3{fill:none;stroke:url(#SVGID_5_);stroke-width:2.4943;stroke-miterlimit:10;}
	.st4{fill:none;stroke:url(#SVGID_6_);stroke-width:2.4943;stroke-miterlimit:10;}
	.st5{fill:none;stroke:url(#SVGID_7_);stroke-width:2.4943;stroke-miterlimit:10;}
	.st6{fill:none;stroke:url(#SVGID_8_);stroke-width:2.4943;stroke-miterlimit:10;}
	.st7{fill:none;stroke:url(#SVGID_9_);stroke-width:2.4943;stroke-miterlimit:10;}
	.st8{fill:none;stroke:url(#SVGID_10_);stroke-width:2.4943;stroke-miterlimit:10;}
	.st9{fill:none;stroke:url(#SVGID_11_);stroke-width:2.4943;stroke-miterlimit:10;}
	.st10{fill:none;stroke:url(#SVGID_12_);stroke-width:2.4943;stroke-miterlimit:10;}
	.st11{fill:none;stroke:url(#SVGID_13_);stroke-width:2.4943;stroke-miterlimit:10;}
	.st12{fill:none;stroke:url(#SVGID_14_);stroke-width:2.4943;stroke-miterlimit:10;}
	.st13{fill:none;stroke:url(#SVGID_15_);stroke-width:2.4943;stroke-miterlimit:10;}
	.st14{fill:none;stroke:url(#SVGID_16_);stroke-width:2.4943;stroke-miterlimit:10;}
	.st15{fill:none;stroke:url(#SVGID_17_);stroke-width:2.4943;stroke-miterlimit:10;}
	.st16{fill:none;stroke:url(#SVGID_18_);stroke-width:2.4943;stroke-miterlimit:10;}
	.st17{fill:none;stroke:url(#SVGID_19_);stroke-width:2.4943;stroke-miterlimit:10;}
	.st18{fill:none;stroke:url(#SVGID_20_);stroke-width:2.4943;stroke-miterlimit:10;}
	.st19{fill:none;stroke:url(#SVGID_21_);stroke-width:2.4943;stroke-miterlimit:10;}
	.st20{fill:url(#SVGID_22_);}
	.st21{fill:url(#SVGID_23_);}
	.st22{fill:url(#SVGID_24_);}
	.st23{fill:url(#SVGID_25_);}
	.st24{fill:url(#SVGID_26_);}
	.st25{fill:#FFFFFF;}
</style>
<g>
	<linearGradient id="SVGID_1_" gradientUnits="userSpaceOnUse" x1="144.8495" y1="78.5727" x2="148.591" y2="187.4892">
		<stop  offset="0" style="stop-color:#1A237E"/>
		<stop  offset="0.5295" style="stop-color:#283593"/>
		<stop  offset="1" style="stop-color:#304FFE"/>
	</linearGradient>
	<path class="st0" d="M197.7,39c-0.1,0-0.1-0.1-0.2-0.1c0,0,0,0,0,0c0,0-0.1,0-0.1-0.1c0,0-0.1,0-0.1,0c0,0-0.1,0-0.1,0
		c0,0-0.1,0-0.1-0.1c0,0-0.1,0-0.1,0c0,0-0.1,0-0.1,0c0,0-0.1,0-0.1,0c0,0-0.1,0-0.1-0.1c0,0-0.1,0-0.1,0c0,0-0.1,0-0.1,0
		c0,0,0,0-0.1,0c-0.1,0-0.1,0-0.1-0.1c0,0-0.1,0-0.1,0c0,0-0.1,0-0.1,0c0,0-0.1,0-0.1-0.1c0,0-0.1,0-0.1,0c0,0,0,0-0.1,0
		c0,0-0.1,0-0.1-0.1c0,0-0.1,0-0.1-0.1c0,0-0.1,0-0.1,0c0,0,0,0-0.1,0c0,0-0.1,0-0.1-0.1c0,0-0.1,0-0.1,0c0,0-0.1,0-0.1-0.1
		c0,0-0.1,0-0.1,0c0,0-0.1,0-0.1-0.1c0,0-0.1,0-0.1,0c0,0-0.1,0-0.1-0.1c0,0-0.1,0-0.1,0c0,0-0.1,0-0.1-0.1c0,0-0.1,0-0.1,0
		c0,0-0.1,0-0.1-0.1c0,0-0.1,0-0.1,0c0,0-0.1,0-0.1-0.1c0,0,0,0-0.1,0c-0.1,0-0.1,0-0.2-0.1c0,0-0.1,0-0.1,0c0,0-0.1,0-0.1,0
		c0,0-0.1,0-0.1,0c0,0-0.1,0-0.1-0.1c0,0-0.1,0-0.1,0c0,0-0.1,0-0.1,0c0,0-0.1,0-0.1,0c0,0-0.1,0-0.1,0c0,0-0.1,0-0.1,0
		c0,0-0.1,0-0.1-0.1c0,0-0.1,0-0.1,0c0,0-0.1,0-0.1-0.1c0,0-0.1,0-0.1,0c0,0-0.1,0-0.1,0c0,0-0.1,0-0.1-0.1c0,0-0.1,0-0.1-0.1
		c0,0,0,0-0.1,0c0,0-0.1,0-0.1-0.1c0,0-0.1,0-0.1-0.1c0,0-0.1,0-0.1-0.1c0,0-0.1,0-0.1,0c0,0-0.1,0-0.1,0c0,0-0.1,0-0.1-0.1
		c0,0-0.1,0-0.1,0c0,0-0.1,0-0.1,0c0,0-0.1,0-0.1-0.1c0,0-0.1,0-0.1,0c0,0-0.1,0-0.1,0c0,0-0.1,0-0.1,0c0,0-0.1,0-0.1-0.1
		c0,0-0.1,0-0.1,0c0,0-0.1,0-0.1,0c0,0-0.1,0-0.1-0.1c0,0-0.1,0-0.1,0c0,0-0.1,0-0.1-0.1c0,0-0.1,0-0.1,0c0,0-0.1,0-0.1-0.1
		c0,0-0.1,0-0.1,0c0,0-0.1,0-0.1,0c0,0-0.1,0-0.1-0.1c0,0-0.1,0-0.1,0c0,0-0.1,0-0.1,0c0,0-0.1,0-0.1,0c0,0-0.1,0-0.1-0.1
		c0,0-0.1,0-0.1-0.1c0,0-0.1,0-0.1,0c0,0-0.1,0-0.1,0c0,0-0.1,0-0.1-0.1c0,0,0,0-0.1,0c0,0-0.1,0-0.1-0.1c0,0-0.1,0-0.1-0.1
		c0,0-0.1,0-0.1-0.1c0,0-0.1,0-0.1,0c0,0-0.1,0-0.1,0c0,0-0.1,0-0.1-0.1c0,0-0.1,0-0.1,0c0,0-0.1,0-0.1,0c0,0-0.1,0-0.1-0.1
		s-0.1,0-0.1-0.1c0,0-0.1,0-0.1,0c0,0-0.1,0-0.1-0.1c0,0-0.1,0-0.1-0.1c-11.3-5.5-25-7.3-39.8-4.4L68.2,45.1c-2.6,0.5-4.7,3-4.7,5.6
		v97c0,24.5,12.4,43.7,31.4,52.8c0,0,0.1,0,0.1,0.1c0,0,0,0,0.1,0c0,0,0.1,0,0.1,0.1c0,0,0.1,0,0.1,0c0,0,0.1,0,0.1,0.1
		c0,0,0.1,0,0.1,0c0,0,0.1,0,0.1,0.1c0,0,0,0,0.1,0c0.1,0,0.1,0,0.2,0.1c0,0,0.1,0,0.1,0c0,0,0.1,0,0.1,0c0,0,0.1,0,0.1,0.1
		c0,0,0.1,0,0.1,0c0,0,0.1,0,0.1,0.1c0,0,0.1,0,0.1,0.1c0,0,0,0,0.1,0c0.1,0,0.1,0,0.2,0.1c0,0,0.1,0,0.1,0c0,0,0.1,0,0.1,0
		c0,0,0.1,0,0.1,0.1c0,0,0.1,0,0.1,0.1c0,0,0.1,0,0.1,0c0,0,0.1,0,0.1,0c0,0,0.1,0,0.1,0.1c0,0,0.1,0,0.1,0.1c0,0,0.1,0,0.1,0
		c0,0,0.1,0,0.1,0c0,0,0.1,0,0.1,0.1c0,0,0.1,0,0.1,0.1c0,0,0.1,0,0.1,0c0,0,0.1,0,0.1,0.1c0,0,0.1,0,0.1,0c0,0,0.1,0,0.1,0.1
		c0,0,0.1,0,0.1,0c0,0,0.1,0,0.1,0.1c0,0,0.1,0,0.1,0.1c0,0,0,0,0.1,0c0,0,0.1,0,0.1,0.1c0,0,0.1,0,0.1,0c0,0,0.1,0,0.1,0
		c0,0,0.1,0,0.1,0.1c0,0,0,0,0.1,0c0,0,0.1,0,0.1,0.1s0.1,0,0.1,0.1c0,0,0.1,0,0.1,0c0,0,0.1,0,0.1,0.1c0,0,0.1,0,0.1,0
		c0,0,0.1,0,0.1,0c0,0,0.1,0,0.1,0.1c0,0,0,0,0,0c0,0,0.1,0,0.1,0.1c0,0,0.1,0,0.1,0.1c0,0,0.1,0,0.1,0c0,0,0.1,0,0.1,0.1
		c0,0,0.1,0,0.1,0c0,0,0.1,0,0.1,0c0,0,0.1,0,0.1,0.1c0,0,0.1,0,0.1,0.1c0,0,0,0,0.1,0c0,0,0.1,0,0.1,0.1c0,0,0.1,0,0.1,0.1
		c0,0,0.1,0,0.1,0c0,0,0.1,0,0.1,0c0,0,0.1,0,0.1,0.1c0,0,0.1,0,0.1,0c0,0,0.1,0,0.1,0.1c0,0,0,0,0.1,0c0,0,0.1,0,0.1,0.1
		c0,0,0.1,0,0.1,0.1c0,0,0.1,0,0.1,0c0,0,0.1,0,0.1,0c0,0,0.1,0,0.1,0.1c0,0,0,0,0.1,0c0,0,0.1,0,0.1,0.1c0,0,0.1,0,0.1,0
		c0,0,0.1,0,0.1,0c0,0,0.1,0,0.1,0c0,0,0.1,0,0.1,0.1c0,0,0.1,0,0.1,0.1c0,0,0.1,0,0.1,0c0,0,0.1,0,0.1,0c0,0,0.1,0,0.1,0.1
		c0,0,0.1,0,0.1,0.1c0,0,0,0,0.1,0c0,0,0.1,0,0.1,0.1c0,0,0.1,0,0.1,0c0,0,0.1,0,0.1,0.1c0,0,0,0,0.1,0c0,0,0.1,0,0.1,0.1
		c0,0,0.1,0,0.1,0.1c0,0,0,0,0.1,0c0,0,0.1,0,0.1,0c0,0,0.1,0,0.1,0.1c0,0,0.1,0,0.1,0c0,0,0,0,0.1,0c0.1,0,0.1,0.1,0.2,0.1
		c0,0,0,0,0.1,0c0,0,0.1,0,0.1,0.1c0,0,0,0,0.1,0c0,0,0.1,0,0.1,0.1c11.3,5.5,25,7.3,39.7,4.4l13.1-2.6c39.2-7.6,71-45.6,71-84.9
		V91.8C229,67.3,216.6,48.1,197.7,39z"/>
	<g>
		<defs>
			<path id="SVGID_2_" d="M197.7,39c-0.1,0-0.1-0.1-0.2-0.1c0,0,0,0,0,0c0,0-0.1,0-0.1-0.1c0,0-0.1,0-0.1,0c0,0-0.1,0-0.1,0
				c0,0-0.1,0-0.1-0.1c0,0-0.1,0-0.1,0c0,0-0.1,0-0.1,0c0,0-0.1,0-0.1,0c0,0-0.1,0-0.1-0.1c0,0-0.1,0-0.1,0c0,0-0.1,0-0.1,0
				c0,0,0,0-0.1,0c-0.1,0-0.1,0-0.1-0.1c0,0-0.1,0-0.1,0c0,0-0.1,0-0.1,0c0,0-0.1,0-0.1-0.1c0,0-0.1,0-0.1,0c0,0,0,0-0.1,0
				c0,0-0.1,0-0.1-0.1c0,0-0.1,0-0.1-0.1c0,0-0.1,0-0.1,0c0,0,0,0-0.1,0c0,0-0.1,0-0.1-0.1c0,0-0.1,0-0.1,0c0,0-0.1,0-0.1-0.1
				c0,0-0.1,0-0.1,0c0,0-0.1,0-0.1-0.1c0,0-0.1,0-0.1,0c0,0-0.1,0-0.1-0.1c0,0-0.1,0-0.1,0c0,0-0.1,0-0.1-0.1c0,0-0.1,0-0.1,0
				c0,0-0.1,0-0.1-0.1c0,0-0.1,0-0.1,0c0,0-0.1,0-0.1-0.1c0,0,0,0-0.1,0c-0.1,0-0.1,0-0.2-0.1c0,0-0.1,0-0.1,0c0,0-0.1,0-0.1,0
				c0,0-0.1,0-0.1,0c0,0-0.1,0-0.1-0.1c0,0-0.1,0-0.1,0c0,0-0.1,0-0.1,0c0,0-0.1,0-0.1,0c0,0-0.1,0-0.1,0c0,0-0.1,0-0.1,0
				c0,0-0.1,0-0.1-0.1c0,0-0.1,0-0.1,0c0,0-0.1,0-0.1-0.1c0,0-0.1,0-0.1,0c0,0-0.1,0-0.1,0c0,0-0.1,0-0.1-0.1c0,0-0.1,0-0.1-0.1
				c0,0,0,0-0.1,0c0,0-0.1,0-0.1-0.1c0,0-0.1,0-0.1-0.1c0,0-0.1,0-0.1-0.1c0,0-0.1,0-0.1,0c0,0-0.1,0-0.1,0c0,0-0.1,0-0.1-0.1
				c0,0-0.1,0-0.1,0c0,0-0.1,0-0.1,0c0,0-0.1,0-0.1-0.1c0,0-0.1,0-0.1,0c0,0-0.1,0-0.1,0c0,0-0.1,0-0.1,0c0,0-0.1,0-0.1-0.1
				c0,0-0.1,0-0.1,0c0,0-0.1,0-0.1,0c0,0-0.1,0-0.1-0.1c0,0-0.1,0-0.1,0c0,0-0.1,0-0.1-0.1c0,0-0.1,0-0.1,0c0,0-0.1,0-0.1-0.1
				c0,0-0.1,0-0.1,0c0,0-0.1,0-0.1,0c0,0-0.1,0-0.1-0.1c0,0-0.1,0-0.1,0c0,0-0.1,0-0.1,0c0,0-0.1,0-0.1,0c0,0-0.1,0-0.1-0.1
				c0,0-0.1,0-0.1-0.1c0,0-0.1,0-0.1,0c0,0-0.1,0-0.1,0c0,0-0.1,0-0.1-0.1c0,0,0,0-0.1,0c0,0-0.1,0-0.1-0.1c0,0-0.1,0-0.1-0.1
				c0,0-0.1,0-0.1-0.1c0,0-0.1,0-0.1,0c0,0-0.1,0-0.1,0c0,0-0.1,0-0.1-0.1c0,0-0.1,0-0.1,0c0,0-0.1,0-0.1,0c0,0-0.1,0-0.1-0.1
				s-0.1,0-0.1-0.1c0,0-0.1,0-0.1,0c0,0-0.1,0-0.1-0.1c0,0-0.1,0-0.1-0.1c-11.3-5.5-25-7.3-39.8-4.4l-37.1,7.2l-42.3,8.2
				c-2.6,0.5-4.7,3-4.7,5.6v97c0,24.5,12.4,43.7,31.4,52.8c0,0,0.1,0,0.1,0.1c0,0,0,0,0.1,0c0,0,0.1,0,0.1,0.1c0,0,0.1,0,0.1,0
				c0,0,0.1,0,0.1,0.1c0,0,0.1,0,0.1,0c0,0,0.1,0,0.1,0.1c0,0,0,0,0.1,0c0.1,0,0.1,0,0.2,0.1c0,0,0.1,0,0.1,0c0,0,0.1,0,0.1,0
				c0,0,0.1,0,0.1,0.1c0,0,0.1,0,0.1,0c0,0,0.1,0,0.1,0.1c0,0,0.1,0,0.1,0.1c0,0,0,0,0.1,0c0.1,0,0.1,0,0.2,0.1c0,0,0.1,0,0.1,0
				c0,0,0.1,0,0.1,0c0,0,0.1,0,0.1,0.1c0,0,0.1,0,0.1,0.1c0,0,0.1,0,0.1,0c0,0,0.1,0,0.1,0c0,0,0.1,0,0.1,0.1c0,0,0.1,0,0.1,0.1
				c0,0,0.1,0,0.1,0c0,0,0.1,0,0.1,0c0,0,0.1,0,0.1,0.1c0,0,0.1,0,0.1,0.1c0,0,0.1,0,0.1,0c0,0,0.1,0,0.1,0.1c0,0,0.1,0,0.1,0
				c0,0,0.1,0,0.1,0.1c0,0,0.1,0,0.1,0c0,0,0.1,0,0.1,0.1c0,0,0.1,0,0.1,0.1c0,0,0,0,0.1,0c0,0,0.1,0,0.1,0.1c0,0,0.1,0,0.1,0
				c0,0,0.1,0,0.1,0c0,0,0.1,0,0.1,0.1c0,0,0,0,0.1,0c0,0,0.1,0,0.1,0.1s0.1,0,0.1,0.1c0,0,0.1,0,0.1,0c0,0,0.1,0,0.1,0.1
				c0,0,0.1,0,0.1,0c0,0,0.1,0,0.1,0c0,0,0.1,0,0.1,0.1c0,0,0,0,0,0c0,0,0.1,0,0.1,0.1c0,0,0.1,0,0.1,0.1c0,0,0.1,0,0.1,0
				c0,0,0.1,0,0.1,0.1c0,0,0.1,0,0.1,0c0,0,0.1,0,0.1,0c0,0,0.1,0,0.1,0.1c0,0,0.1,0,0.1,0.1c0,0,0,0,0.1,0c0,0,0.1,0,0.1,0.1
				c0,0,0.1,0,0.1,0.1c0,0,0.1,0,0.1,0c0,0,0.1,0,0.1,0c0,0,0.1,0,0.1,0.1c0,0,0.1,0,0.1,0c0,0,0.1,0,0.1,0.1c0,0,0,0,0.1,0
				c0,0,0.1,0,0.1,0.1c0,0,0.1,0,0.1,0.1c0,0,0.1,0,0.1,0c0,0,0.1,0,0.1,0c0,0,0.1,0,0.1,0.1c0,0,0,0,0.1,0c0,0,0.1,0,0.1,0.1
				c0,0,0.1,0,0.1,0c0,0,0.1,0,0.1,0c0,0,0.1,0,0.1,0c0,0,0.1,0,0.1,0.1c0,0,0.1,0,0.1,0.1c0,0,0.1,0,0.1,0c0,0,0.1,0,0.1,0
				c0,0,0.1,0,0.1,0.1c0,0,0.1,0,0.1,0.1c0,0,0,0,0.1,0c0,0,0.1,0,0.1,0.1c0,0,0.1,0,0.1,0c0,0,0.1,0,0.1,0.1c0,0,0,0,0.1,0
				c0,0,0.1,0,0.1,0.1c0,0,0.1,0,0.1,0.1c0,0,0,0,0.1,0c0,0,0.1,0,0.1,0c0,0,0.1,0,0.1,0.1c0,0,0.1,0,0.1,0c0,0,0,0,0.1,0
				c0.1,0,0.1,0.1,0.2,0.1c0,0,0,0,0.1,0c0,0,0.1,0,0.1,0.1c0,0,0,0,0.1,0c0,0,0.1,0,0.1,0.1c11.3,5.5,25,7.3,39.7,4.4l13.1-2.6
				c39.2-7.6,71-45.6,71-84.9V91.8C229,67.3,216.6,48.1,197.7,39z"/>
		</defs>
		<clipPath id="SVGID_3_">
			<use xlink:href="#SVGID_2_"  style="overflow:visible;"/>
		</clipPath>
		<g class="st1">
			<linearGradient id="SVGID_4_" gradientUnits="userSpaceOnUse" x1="68.6759" y1="53.0906" x2="69.2147" y2="68.7751">
				<stop  offset="0" style="stop-color:#304FFE"/>
				<stop  offset="0.5709" style="stop-color:#283593"/>
				<stop  offset="1" style="stop-color:#1A237E"/>
			</linearGradient>
			<line class="st2" x1="58.3" y1="54.5" x2="79.5" y2="67.4"/>
			<linearGradient id="SVGID_5_" gradientUnits="userSpaceOnUse" x1="68.6759" y1="45.2207" x2="69.2147" y2="60.9052">
				<stop  offset="0" style="stop-color:#304FFE"/>
				<stop  offset="0.5709" style="stop-color:#283593"/>
				<stop  offset="1" style="stop-color:#1A237E"/>
			</linearGradient>
			<line class="st3" x1="58.3" y1="46.6" x2="79.5" y2="59.5"/>
			<linearGradient id="SVGID_6_" gradientUnits="userSpaceOnUse" x1="68.6759" y1="61.4042" x2="69.2147" y2="77.0884">
				<stop  offset="0" style="stop-color:#304FFE"/>
				<stop  offset="0.5709" style="stop-color:#283593"/>
				<stop  offset="1" style="stop-color:#1A237E"/>
			</linearGradient>
			<line class="st4" x1="58.3" y1="62.8" x2="79.5" y2="75.7"/>
			<linearGradient id="SVGID_7_" gradientUnits="userSpaceOnUse" x1="68.6759" y1="69.7176" x2="69.2147" y2="85.4021">
				<stop  offset="0" style="stop-color:#304FFE"/>
				<stop  offset="0.5709" style="stop-color:#283593"/>
				<stop  offset="1" style="stop-color:#1A237E"/>
			</linearGradient>
			<line class="st5" x1="58.3" y1="71.1" x2="79.5" y2="84"/>
			<linearGradient id="SVGID_8_" gradientUnits="userSpaceOnUse" x1="68.6759" y1="78.031" x2="69.2147" y2="93.7154">
				<stop  offset="0" style="stop-color:#304FFE"/>
				<stop  offset="0.5709" style="stop-color:#283593"/>
				<stop  offset="1" style="stop-color:#1A237E"/>
			</linearGradient>
			<line class="st6" x1="58.3" y1="79.4" x2="79.5" y2="92.3"/>
			<linearGradient id="SVGID_9_" gradientUnits="userSpaceOnUse" x1="68.6759" y1="86.3443" x2="69.2147" y2="102.0288">
				<stop  offset="0" style="stop-color:#304FFE"/>
				<stop  offset="0.5709" style="stop-color:#283593"/>
				<stop  offset="1" style="stop-color:#1A237E"/>
			</linearGradient>
			<line class="st7" x1="58.3" y1="87.7" x2="79.5" y2="100.6"/>
			<linearGradient id="SVGID_10_" gradientUnits="userSpaceOnUse" x1="68.6759" y1="94.6577" x2="69.2147" y2="110.3422">
				<stop  offset="0" style="stop-color:#304FFE"/>
				<stop  offset="0.5709" style="stop-color:#283593"/>
				<stop  offset="1" style="stop-color:#1A237E"/>
			</linearGradient>
			<line class="st8" x1="58.3" y1="96.1" x2="79.5" y2="108.9"/>
			<linearGradient id="SVGID_11_" gradientUnits="userSpaceOnUse" x1="68.6759" y1="102.9711" x2="69.2147" y2="118.6556">
				<stop  offset="0" style="stop-color:#304FFE"/>
				<stop  offset="0.5709" style="stop-color:#283593"/>
				<stop  offset="1" style="stop-color:#1A237E"/>
			</linearGradient>
			<line class="st9" x1="58.3" y1="104.4" x2="79.5" y2="117.3"/>
			<linearGradient id="SVGID_12_" gradientUnits="userSpaceOnUse" x1="68.6759" y1="111.2845" x2="69.2147" y2="126.969">
				<stop  offset="0" style="stop-color:#304FFE"/>
				<stop  offset="0.5709" style="stop-color:#283593"/>
				<stop  offset="1" style="stop-color:#1A237E"/>
			</linearGradient>
			<line class="st10" x1="58.3" y1="112.7" x2="79.5" y2="125.6"/>
			<linearGradient id="SVGID_13_" gradientUnits="userSpaceOnUse" x1="68.6759" y1="119.5978" x2="69.2147" y2="135.2823">
				<stop  offset="0" style="stop-color:#304FFE"/>
				<stop  offset="0.5709" style="stop-color:#283593"/>
				<stop  offset="1" style="stop-color:#1A237E"/>
			</linearGradient>
			<line class="st11" x1="58.3" y1="121" x2="79.5" y2="133.9"/>
			<linearGradient id="SVGID_14_" gradientUnits="userSpaceOnUse" x1="68.6759" y1="127.9112" x2="69.2147" y2="143.5957">
				<stop  offset="0" style="stop-color:#304FFE"/>
				<stop  offset="0.5709" style="stop-color:#283593"/>
				<stop  offset="1" style="stop-color:#1A237E"/>
			</linearGradient>
			<line class="st12" x1="58.3" y1="129.3" x2="79.5" y2="142.2"/>
			<linearGradient id="SVGID_15_" gradientUnits="userSpaceOnUse" x1="68.6759" y1="136.2246" x2="69.2147" y2="151.9091">
				<stop  offset="0" style="stop-color:#304FFE"/>
				<stop  offset="0.5709" style="stop-color:#283593"/>
				<stop  offset="1" style="stop-color:#1A237E"/>
			</linearGradient>
			<line class="st13" x1="58.3" y1="137.6" x2="79.5" y2="150.5"/>
			<linearGradient id="SVGID_16_" gradientUnits="userSpaceOnUse" x1="68.6759" y1="144.538" x2="69.2147" y2="160.2225">
				<stop  offset="0" style="stop-color:#304FFE"/>
				<stop  offset="0.5709" style="stop-color:#283593"/>
				<stop  offset="1" style="stop-color:#1A237E"/>
			</linearGradient>
			<line class="st14" x1="58.3" y1="145.9" x2="79.5" y2="158.8"/>
			<linearGradient id="SVGID_17_" gradientUnits="userSpaceOnUse" x1="68.6759" y1="152.8513" x2="69.2147" y2="168.5358">
				<stop  offset="0" style="stop-color:#304FFE"/>
				<stop  offset="0.5709" style="stop-color:#283593"/>
				<stop  offset="1" style="stop-color:#1A237E"/>
			</linearGradient>
			<line class="st15" x1="58.3" y1="154.2" x2="79.5" y2="167.1"/>
			<linearGradient id="SVGID_18_" gradientUnits="userSpaceOnUse" x1="68.6759" y1="161.1647" x2="69.2147" y2="176.8492">
				<stop  offset="0" style="stop-color:#304FFE"/>
				<stop  offset="0.5709" style="stop-color:#283593"/>
				<stop  offset="1" style="stop-color:#1A237E"/>
			</linearGradient>
			<line class="st16" x1="58.3" y1="162.6" x2="79.5" y2="175.5"/>
			<linearGradient id="SVGID_19_" gradientUnits="userSpaceOnUse" x1="72.2103" y1="169.4783" x2="72.749" y2="185.1626">
				<stop  offset="0" style="stop-color:#304FFE"/>
				<stop  offset="0.5709" style="stop-color:#283593"/>
				<stop  offset="1" style="stop-color:#1A237E"/>
			</linearGradient>
			<line class="st17" x1="61.9" y1="170.9" x2="83.1" y2="183.8"/>
			<linearGradient id="SVGID_20_" gradientUnits="userSpaceOnUse" x1="79.2812" y1="178.537" x2="79.82" y2="194.2215">
				<stop  offset="0" style="stop-color:#304FFE"/>
				<stop  offset="0.5709" style="stop-color:#283593"/>
				<stop  offset="1" style="stop-color:#1A237E"/>
			</linearGradient>
			<line class="st18" x1="69" y1="179.9" x2="90.2" y2="192.8"/>
			<linearGradient id="SVGID_21_" gradientUnits="userSpaceOnUse" x1="86.3475" y1="186.1051" x2="86.8863" y2="201.7896">
				<stop  offset="0" style="stop-color:#304FFE"/>
				<stop  offset="0.5709" style="stop-color:#283593"/>
				<stop  offset="1" style="stop-color:#1A237E"/>
			</linearGradient>
			<line class="st19" x1="76" y1="187.5" x2="97.2" y2="200.4"/>
		</g>
	</g>
	
		<linearGradient id="SVGID_22_" gradientUnits="userSpaceOnUse" x1="21.3105" y1="126.7493" x2="194.0087" y2="-45.9489" gradientTransform="matrix(1 -0.1949 0 1 0 135.807)">
		<stop  offset="0" style="stop-color:#1A237E"/>
		<stop  offset="0.5295" style="stop-color:#283593"/>
		<stop  offset="1" style="stop-color:#304FFE"/>
	</linearGradient>
	<path class="st20" d="M78.6,50.1c-2.6,0.5-4.7,3-4.7,5.6v97c0,39.2,31.8,64.8,71,57.2l13.1-2.6c39.2-7.6,71-45.6,71-84.9V91.8
		c0-39.2-31.8-64.8-71-57.2L120.3,42L78.6,50.1z"/>
	<g>
		<linearGradient id="SVGID_23_" gradientUnits="userSpaceOnUse" x1="127.8256" y1="126.5102" x2="127.8256" y2="63.518">
			<stop  offset="0" style="stop-color:#1A237E"/>
			<stop  offset="0.5295" style="stop-color:#283593"/>
			<stop  offset="1" style="stop-color:#304FFE"/>
		</linearGradient>
		<path class="st21" d="M145,169.8c-0.6-0.3-1.2-0.4-2-0.2c-5.1,1-9.9,0.7-14.2-0.7c-7.7-4.2-12.7-12.3-12.7-22.6v-63
			c0-1.2-0.6-2.1-5.9-4.4c-0.6-0.3-1.2-0.4-2-0.2c-1.9,0.4-3.5,2.2-3.5,4.1v63c0,7,0.8,14.2,2.7,21c1.5,5.5,3.5,11.3,7.2,15.7
			c4.2,5,10.3,7.2,16.7,7.7c4.3,0.3,8.7-0.1,13-0.5c6.8-0.6,6.4-10.6,6.4-15.4C150.8,173,150.2,172.1,145,169.8z"/>
		<linearGradient id="SVGID_24_" gradientUnits="userSpaceOnUse" x1="181.9738" y1="126.5104" x2="181.9738" y2="63.5176">
			<stop  offset="0" style="stop-color:#1A237E"/>
			<stop  offset="0.5295" style="stop-color:#283593"/>
			<stop  offset="1" style="stop-color:#304FFE"/>
		</linearGradient>
		<path class="st22" d="M188.1,72.3C188.1,72.3,188.1,72.3,188.1,72.3C188,72.3,188,72.3,188.1,72.3c-0.1,0-0.1-0.1-0.1-0.1
			c0,0,0,0,0,0c0,0,0,0,0,0c0,0-0.1,0-0.1,0c0,0,0,0-0.1,0c0,0,0,0,0,0c0,0,0,0,0,0c0,0,0,0,0,0c0,0,0,0,0,0c0,0-0.1,0-0.1,0
			c0,0,0,0,0,0c0,0-0.1,0-0.1,0c0,0,0,0,0,0c0,0-0.1,0-0.1-0.1c0,0,0,0,0,0c0,0-0.1,0-0.1,0c0,0,0,0,0,0c0,0-0.1,0-0.1,0
			c0,0,0,0,0,0c0,0-0.1,0-0.1,0c0,0-0.1,0-0.1,0c0,0-0.1,0-0.1,0c0,0,0,0,0,0c0,0,0,0,0,0c0,0,0,0,0,0c0,0,0,0,0,0c0,0,0,0,0,0
			c0,0,0,0,0,0c0,0-0.1,0-0.1,0c0,0,0,0-0.1,0c0,0,0,0,0,0c0,0,0,0,0,0c0,0,0,0,0,0c0,0,0,0,0,0c0,0,0,0,0,0c0,0,0,0,0,0
			c0,0,0,0,0,0c0,0,0,0-0.1,0c0,0-0.1,0-0.1,0c0,0,0,0-0.1,0c0,0,0,0,0,0c0,0-0.1,0-0.1,0c0,0,0,0,0,0c0,0-0.1,0-0.1,0c0,0,0,0,0,0
			c0,0-0.1,0-0.1,0c0,0,0,0,0,0c0,0,0,0,0,0c0,0-0.1,0-0.1,0c0,0,0,0,0,0c0,0,0,0,0,0c0,0,0,0,0,0c0,0,0,0-0.1,0c0,0,0,0,0,0
			c0,0,0,0,0,0c0,0-0.1,0-0.1,0c0,0-0.1,0-0.1,0c0,0,0,0,0,0c0,0-0.1,0-0.1,0c0,0,0,0,0,0c0,0-0.1,0-0.1,0c0,0,0,0,0,0c0,0,0,0,0,0
			c0,0,0,0,0,0c0,0-0.1,0-0.1,0c0,0-0.1,0-0.1,0c0,0,0,0,0,0c0,0-0.1,0-0.1,0c0,0-0.1,0-0.1,0c0,0,0,0,0,0c0,0,0,0-0.1,0
			c0,0,0,0,0,0c0,0,0,0,0,0c0,0,0,0,0,0c-0.2-0.1-0.4-0.1-0.5-0.2c-0.8-0.4-1.7-0.8-2.6-1.1c-5.4-1.9-11.6-2.4-18.2-1.1
			c-1.9,0.4-3.5,2.2-3.5,4.1v108.3c0,1.2,0.6,2.2,1.6,2.6c0,0,0,0,0,0c0,0,0,0,0,0c0,0,0,0,0,0c0,0,0,0,0,0c0,0,0,0,0,0c0,0,0,0,0,0
			c0,0,0,0,0,0c0,0,0,0,0,0c0,0,0,0,0,0c0,0,0,0,0,0c0,0,0,0,0,0c0,0,0,0,0,0c0,0,0,0,0,0c0,0,0,0,0,0c0,0,0,0,0,0c0,0,0,0,0.1,0
			c0,0,0,0,0,0c0,0,0,0,0.1,0c0,0,0,0,0,0c0,0,0,0,0,0c0,0,0,0,0,0c0,0,0,0,0,0c0,0,0,0,0,0c0,0,0,0,0,0c0,0,0,0,0,0c0,0,0,0,0.1,0
			c0,0,0,0,0,0c0,0,0,0,0,0c0,0,0,0,0,0c0,0,0,0,0,0c0,0,0,0,0,0c0,0,0,0,0,0c0,0,0,0,0,0c0,0,0,0,0,0c0,0,0,0,0,0c0,0,0,0,0,0
			c0,0,0,0,0,0c0,0,0,0,0.1,0c0,0,0,0,0,0c0,0,0,0,0,0c0,0,0,0,0,0c0,0,0,0,0,0c0,0,0,0,0,0c0,0,0,0,0,0c0,0,0,0,0,0c0,0,0,0,0,0
			c0,0,0,0,0,0c0,0,0,0,0,0c0,0,0,0,0,0c0,0,0,0,0,0c0,0,0,0,0,0c0,0,0,0,0,0c0,0,0,0,0,0c0,0,0,0,0.1,0c0,0,0,0,0,0c0,0,0,0,0,0
			c0,0,0,0,0,0c0,0,0,0,0,0c0,0,0,0,0,0c0,0,0,0,0,0c0,0,0,0,0.1,0c0,0,0,0,0,0c0,0,0,0,0,0c0,0,0,0,0.1,0c0,0,0,0,0,0c0,0,0,0,0,0
			c0,0,0,0,0,0c0,0,0,0,0,0c0,0,0,0,0,0c0,0,0,0,0,0c0,0,0,0,0,0c0,0,0,0,0.1,0c0,0,0,0,0,0c0,0,0,0,0.1,0c0,0,0,0,0,0c0,0,0,0,0,0
			c0,0,0,0,0,0c0,0,0,0,0,0c0,0,0,0,0,0c0,0,0,0,0,0c0,0,0,0,0,0c0,0,0,0,0,0c0,0,0,0,0,0c0,0,0,0,0,0c0,0,0,0,0,0c0,0,0,0,0,0
			c0,0,0,0,0,0c0,0,0,0,0,0c0,0,0,0,0.1,0c0,0,0,0,0,0c0,0,0,0,0,0c0,0,0,0,0,0c0,0,0,0,0,0c0,0,0,0,0,0c0,0,0,0,0,0c0,0,0,0,0,0
			c0,0,0,0,0,0c0,0,0,0,0,0c0,0,0,0,0,0c0,0,0,0,0,0c0.6,0.3,1.2,0.4,1.9,0.2c21.1-4.1,38.2-23.3,38.2-56.3v-28.2
			C205,87.5,198.3,77.2,188.1,72.3z M193.7,106.5v25.4c0,13.1-10,25.8-23.4,31.3V85.2c3.8-0.3,7.4,0.1,10.7,1
			C188.7,90,193.7,97.3,193.7,106.5z"/>
	</g>
	<g>
		<linearGradient id="SVGID_25_" gradientUnits="userSpaceOnUse" x1="127.8235" y1="54.4887" x2="127.8235" y2="219.4213">
			<stop  offset="0" style="stop-color:#FFFFFF"/>
			<stop  offset="1" style="stop-color:#1C1E5F"/>
		</linearGradient>
		<path class="st23" d="M149.3,171.6C149.3,171.6,149.3,171.6,149.3,171.6C149.2,171.6,149.2,171.6,149.3,171.6
			c-0.1,0-0.1-0.1-0.1-0.1c0,0,0,0,0,0c0,0,0,0-0.1,0c0,0,0,0,0,0c0,0,0,0,0,0c0,0,0,0,0,0c0,0,0,0,0,0c0,0,0,0,0,0c0,0,0,0-0.1,0
			c0,0,0,0,0,0c0,0,0,0,0,0c0,0,0,0,0,0c0,0,0,0,0,0c0,0,0,0,0,0c0,0,0,0,0,0c0,0,0,0-0.1,0c0,0,0,0,0,0c0,0,0,0,0,0c0,0,0,0-0.1,0
			c0,0,0,0,0,0c0,0,0,0,0,0c0,0,0,0,0,0c0,0,0,0,0,0c0,0,0,0,0,0c0,0,0,0,0,0c0,0,0,0,0,0c0,0,0,0,0,0c0,0,0,0,0,0c0,0,0,0,0,0
			c0,0,0,0,0,0c0,0,0,0,0,0c0,0,0,0-0.1,0c0,0,0,0,0,0c0,0,0,0,0,0c0,0,0,0,0,0c0,0,0,0,0,0c0,0,0,0-0.1,0c0,0,0,0,0,0c0,0,0,0,0,0
			c0,0,0,0,0,0c0,0,0,0,0,0c0,0,0,0,0,0c0,0,0,0,0,0c0,0,0,0,0,0c0,0,0,0,0,0c0,0,0,0,0,0c0,0,0,0,0,0c0,0,0,0,0,0c0,0,0,0,0,0
			c0,0,0,0,0,0c0,0,0,0,0,0c0,0,0,0,0,0c0,0,0,0,0,0c0,0,0,0,0,0c0,0,0,0,0,0c0,0,0,0,0,0c0,0,0,0-0.1,0c0,0,0,0,0,0c0,0,0,0,0,0
			c0,0,0,0-0.1,0c0,0,0,0,0,0c0,0,0,0,0,0c0,0,0,0,0,0c0,0,0,0,0,0c0,0,0,0,0,0c0,0,0,0,0,0c0,0,0,0,0,0c0,0,0,0,0,0c0,0,0,0,0,0
			c0,0,0,0,0,0c0,0,0,0,0,0c0,0,0,0-0.1,0c0,0,0,0,0,0c0,0,0,0,0,0c0,0,0,0,0,0c0,0,0,0,0,0c0,0,0,0,0,0c0,0,0,0,0,0c0,0,0,0,0,0
			c0,0,0,0,0,0c0,0,0,0,0,0c0,0,0,0-0.1,0c0,0,0,0,0,0c0,0,0,0,0,0c0,0,0,0-0.1,0c0,0,0,0,0,0c0,0,0,0,0,0c0,0,0,0,0,0c0,0,0,0,0,0
			c0,0,0,0,0,0c0,0,0,0,0,0c0,0,0,0,0,0c0,0,0,0,0,0c0,0,0,0,0,0c0,0,0,0,0,0c0,0,0,0,0,0c0,0,0,0,0,0c0,0,0,0,0,0
			c-0.6-0.3-1.2-0.4-2-0.2c-5.1,1-9.9,0.7-14.2-0.7c-7.7-4.2-12.7-12.3-12.7-22.6v-63c0-1.2-0.6-2.1-1.6-2.6c0,0,0,0,0,0
			c0,0,0,0,0,0c0,0,0,0,0,0c0,0,0,0,0,0c0,0,0,0,0,0c0,0,0,0,0,0c0,0,0,0,0,0c0,0,0,0,0,0c0,0,0,0,0,0c0,0,0,0,0,0c0,0,0,0-0.1,0
			c0,0,0,0,0,0c0,0,0,0-0.1,0c0,0,0,0,0,0c0,0,0,0,0,0c0,0,0,0,0,0c0,0,0,0,0,0c0,0,0,0,0,0c0,0,0,0,0,0c0,0,0,0,0,0c0,0,0,0,0,0
			c0,0,0,0,0,0c0,0,0,0,0,0c0,0,0,0,0,0c0,0,0,0,0,0c0,0,0,0,0,0c0,0,0,0,0,0c0,0,0,0,0,0c0,0,0,0,0,0c0,0,0,0,0,0c0,0,0,0-0.1,0
			c0,0,0,0,0,0c0,0,0,0,0,0c0,0,0,0,0,0c0,0,0,0,0,0c0,0,0,0,0,0c0,0,0,0,0,0c0,0,0,0,0,0c0,0,0,0-0.1,0c0,0,0,0,0,0c0,0,0,0-0.1,0
			c0,0,0,0,0,0c0,0,0,0,0,0s0,0,0,0c0,0,0,0,0,0c0,0,0,0-0.1,0c0,0,0,0,0,0c0,0,0,0,0,0c0,0,0,0,0,0c0,0,0,0,0,0c0,0,0,0,0,0
			c0,0,0,0,0,0c0,0,0,0,0,0c0,0,0,0,0,0c0,0,0,0,0,0c0,0,0,0,0,0c0,0,0,0,0,0c0,0,0,0,0,0c0,0,0,0,0,0c0,0,0,0,0,0c0,0,0,0,0,0
			c0,0,0,0-0.1,0c0,0,0,0,0,0c0,0,0,0,0,0c0,0,0,0,0,0c0,0,0,0-0.1,0c0,0,0,0,0,0c0,0,0,0,0,0c0,0,0,0,0,0c0,0,0,0,0,0
			c0,0,0,0-0.1,0c0,0,0,0,0,0c0,0,0,0,0,0c0,0,0,0,0,0c0,0,0,0,0,0c0,0,0,0,0,0c0,0,0,0,0,0c0,0,0,0,0,0c0,0,0,0,0,0c0,0,0,0,0,0
			s0,0,0,0c0,0,0,0-0.1,0c0,0,0,0,0,0c0,0,0,0,0,0c0,0,0,0,0,0c0,0,0,0,0,0c0,0,0,0,0,0c0,0,0,0,0,0c0,0,0,0-0.1,0c0,0,0,0,0,0
			c0,0,0,0,0,0c0,0,0,0-0.1,0c0,0,0,0,0,0c0,0,0,0,0,0c0,0,0,0,0,0c0,0,0,0,0,0c0,0,0,0,0,0c0,0,0,0,0,0c0,0,0,0,0,0c0,0,0,0-0.1,0
			c-0.6-0.3-1.2-0.4-2-0.2c-1.9,0.4-3.5,2.2-3.5,4.1v63c0,13.2,6.7,23.5,16.9,28.4c0,0,0.1,0,0.1,0c0,0,0,0,0,0c0,0,0,0,0,0
			c0,0,0,0,0.1,0c0,0,0,0,0,0c0,0,0.1,0,0.1,0c0,0,0,0,0,0c0,0,0,0,0,0c0,0,0,0,0,0c0,0,0,0,0.1,0c0,0,0,0,0,0c0,0,0,0,0,0
			c0,0,0,0,0,0c0,0,0,0,0,0c0,0,0,0,0,0c0,0,0,0,0,0c0,0,0,0,0,0c0,0,0.1,0,0.1,0c0,0,0.1,0,0.1,0c0,0,0,0,0,0c0,0,0.1,0,0.1,0
			c0,0,0,0,0,0c0,0,0.1,0,0.1,0c0,0,0.1,0,0.1,0c0,0,0,0,0,0c0,0,0.1,0,0.1,0c0,0,0.1,0,0.1,0c0,0,0,0,0,0c0,0,0.1,0,0.1,0
			c0,0,0.1,0,0.1,0c0,0,0,0,0,0c0,0,0,0,0.1,0c0,0,0,0,0,0c0,0,0.1,0,0.1,0c0,0,0,0,0,0c0,0,0.1,0,0.1,0c0,0,0,0,0,0
			c0,0,0.1,0,0.1,0c0,0,0.1,0,0.1,0c0,0,0,0,0,0c0,0,0.1,0,0.1,0c0,0,0.1,0,0.1,0c0,0,0,0,0.1,0c0,0,0.1,0,0.1,0c0,0,0,0,0.1,0
			c0,0,0,0,0,0c0,0,0,0,0,0c0,0,0,0,0,0c0,0,0,0,0,0c0,0,0,0,0,0c0,0,0,0,0,0c0,0,0,0,0.1,0c0,0,0,0,0,0c0,0,0,0,0,0
			c0,0,0.1,0,0.1,0c0,0,0,0,0.1,0c0,0,0,0,0,0c0,0,0,0,0,0c0,0,0,0,0,0c0,0,0,0,0,0c0,0,0,0,0,0c0,0,0.1,0,0.1,0c0,0,0.1,0,0.1,0
			c0,0,0,0,0,0c0,0,0,0,0,0c0,0,0,0,0,0c0,0,0.1,0,0.1,0c0,0,0,0,0,0c0,0,0,0,0,0c0,0,0,0,0,0c0,0,0.1,0,0.1,0c0,0,0,0,0,0
			c0,0,0,0,0,0c0,0,0,0,0,0c0,0,0.1,0,0.1,0c6.1,2.9,13.5,3.9,21.4,2.4c1.9-0.4,3.5-2.2,3.5-4.2C150.8,173,150.2,172.1,149.3,171.6z
			"/>
		<linearGradient id="SVGID_26_" gradientUnits="userSpaceOnUse" x1="181.9738" y1="54.4882" x2="181.9738" y2="219.4225">
			<stop  offset="0" style="stop-color:#FFFFFF"/>
			<stop  offset="1" style="stop-color:#1C1E5F"/>
		</linearGradient>
		<path class="st24" d="M188.1,72.3C188.1,72.3,188.1,72.3,188.1,72.3C188,72.3,188,72.3,188.1,72.3c-0.1,0-0.1-0.1-0.1-0.1
			c0,0,0,0,0,0c0,0,0,0,0,0c0,0-0.1,0-0.1,0c0,0,0,0-0.1,0c0,0,0,0,0,0c0,0,0,0,0,0c0,0,0,0,0,0c0,0,0,0,0,0c0,0-0.1,0-0.1,0
			c0,0,0,0,0,0c0,0-0.1,0-0.1,0c0,0,0,0,0,0c0,0-0.1,0-0.1-0.1c0,0,0,0,0,0c0,0-0.1,0-0.1,0c0,0,0,0,0,0c0,0-0.1,0-0.1,0
			c0,0,0,0,0,0c0,0-0.1,0-0.1,0c0,0-0.1,0-0.1,0c0,0-0.1,0-0.1,0c0,0,0,0,0,0c0,0,0,0,0,0c0,0,0,0,0,0c0,0,0,0,0,0c0,0,0,0,0,0
			c0,0,0,0,0,0c0,0-0.1,0-0.1,0c0,0,0,0-0.1,0c0,0,0,0,0,0c0,0,0,0,0,0c0,0,0,0,0,0c0,0,0,0,0,0c0,0,0,0,0,0c0,0,0,0,0,0
			c0,0,0,0,0,0c0,0,0,0-0.1,0c0,0-0.1,0-0.1,0c0,0,0,0-0.1,0c0,0,0,0,0,0c0,0-0.1,0-0.1,0c0,0,0,0,0,0c0,0-0.1,0-0.1,0c0,0,0,0,0,0
			c0,0-0.1,0-0.1,0c0,0,0,0,0,0c0,0,0,0,0,0c0,0-0.1,0-0.1,0c0,0,0,0,0,0c0,0,0,0,0,0c0,0,0,0,0,0c0,0,0,0-0.1,0c0,0,0,0,0,0
			c0,0,0,0,0,0c0,0-0.1,0-0.1,0c0,0-0.1,0-0.1,0c0,0,0,0,0,0c0,0-0.1,0-0.1,0c0,0,0,0,0,0c0,0-0.1,0-0.1,0c0,0,0,0,0,0c0,0,0,0,0,0
			c0,0,0,0,0,0c0,0-0.1,0-0.1,0c0,0-0.1,0-0.1,0c0,0,0,0,0,0c0,0-0.1,0-0.1,0c0,0-0.1,0-0.1,0c0,0,0,0,0,0c0,0,0,0-0.1,0
			c0,0,0,0,0,0c0,0,0,0,0,0c0,0,0,0,0,0c-0.2-0.1-0.4-0.1-0.5-0.2c-0.8-0.4-1.7-0.8-2.6-1.1c-5.4-1.9-11.6-2.4-18.2-1.1
			c-1.9,0.4-3.5,2.2-3.5,4.1v97.7c0,1.2,0.6,2.2,1.6,2.6c0,0,0,0,0,0c0,0,0,0,0,0c0,0,0,0,0,0c0,0,0,0,0,0c0,0,0,0,0,0c0,0,0,0,0,0
			c0,0,0,0,0,0c0,0,0,0,0,0c0,0,0,0,0,0c0,0,0,0,0,0c0,0,0,0,0,0c0,0,0,0,0,0c0,0,0,0,0,0c0,0,0,0,0,0c0,0,0,0,0,0c0,0,0,0,0.1,0
			c0,0,0,0,0,0c0,0,0,0,0.1,0c0,0,0,0,0,0c0,0,0,0,0,0c0,0,0,0,0,0c0,0,0,0,0,0c0,0,0,0,0,0c0,0,0,0,0,0c0,0,0,0,0,0c0,0,0,0,0.1,0
			c0,0,0,0,0,0c0,0,0,0,0,0c0,0,0,0,0,0c0,0,0,0,0,0c0,0,0,0,0,0c0,0,0,0,0,0c0,0,0,0,0,0c0,0,0,0,0,0c0,0,0,0,0,0c0,0,0,0,0,0
			c0,0,0,0,0,0c0,0,0,0,0.1,0c0,0,0,0,0,0c0,0,0,0,0,0c0,0,0,0,0,0c0,0,0,0,0,0c0,0,0,0,0,0c0,0,0,0,0,0c0,0,0,0,0,0c0,0,0,0,0,0
			c0,0,0,0,0,0c0,0,0,0,0,0c0,0,0,0,0,0c0,0,0,0,0,0c0,0,0,0,0,0c0,0,0,0,0,0c0,0,0,0,0,0c0,0,0,0,0.1,0c0,0,0,0,0,0c0,0,0,0,0,0
			c0,0,0,0,0,0c0,0,0,0,0,0c0,0,0,0,0,0c0,0,0,0,0,0c0,0,0,0,0.1,0c0,0,0,0,0,0c0,0,0,0,0,0c0,0,0,0,0.1,0c0,0,0,0,0,0c0,0,0,0,0,0
			c0,0,0,0,0,0c0,0,0,0,0,0c0,0,0,0,0,0c0,0,0,0,0,0c0,0,0,0,0,0c0,0,0,0,0.1,0c0,0,0,0,0,0c0,0,0,0,0.1,0c0,0,0,0,0,0c0,0,0,0,0,0
			c0,0,0,0,0,0c0,0,0,0,0,0c0,0,0,0,0,0c0,0,0,0,0,0c0,0,0,0,0,0c0,0,0,0,0,0c0,0,0,0,0,0c0,0,0,0,0,0c0,0,0,0,0,0c0,0,0,0,0,0
			c0,0,0,0,0,0c0,0,0,0,0,0c0,0,0,0,0.1,0c0,0,0,0,0,0c0,0,0,0,0,0c0,0,0,0,0,0c0,0,0,0,0,0c0,0,0,0,0,0c0,0,0,0,0,0c0,0,0,0,0,0
			c0,0,0,0,0,0c0,0,0,0,0,0c0,0,0,0,0,0c0,0,0,0,0,0c0.6,0.3,1.2,0.4,1.9,0.2c21.1-4.1,38.2-24.6,38.2-45.7v-28.2
			C205,87.5,198.3,77.2,188.1,72.3z M193.7,100.2v28.2c0,14.5-10,28.7-23.4,34.8V76.4c3.8-0.3,7.4,0.1,10.7,1.1
			C188.7,81.8,193.7,89.9,193.7,100.2z"/>
	</g>
	<g>
		<path class="st25" d="M147.4,178.4c-21.1,4.1-38.2-9.7-38.2-30.8v-63c0-1.9,1.6-3.8,3.5-4.1c1.9-0.4,3.5,0.9,3.5,2.8v63
			c0,17.2,14,28.5,31.3,25.2c1.9-0.4,3.5,0.9,3.5,2.8C150.8,176.1,149.3,178,147.4,178.4"/>
		<path class="st25" d="M166.8,70c-1.9,0.4-3.5,2.2-3.5,4.1v97.7c0,1.9,1.6,3.2,3.5,2.8c21.1-4.1,38.2-24.6,38.2-45.7v-28.2
			C205,79.7,187.9,65.9,166.8,70 M198,130.3c0,16.1-12.2,31.7-27.8,36.5V76.4c15.6-1.3,27.8,9.6,27.8,25.6V130.3z"/>
	</g>
</g>
</svg>
