<?xml version="1.0" encoding="utf-8"?>
<!-- Generator: Adobe Illustrator 21.1.0, SVG Export Plug-In . SVG Version: 6.00 Build 0)  -->
<svg version="1.1" id="Layer_1" xmlns="http://www.w3.org/2000/svg" xmlns:xlink="http://www.w3.org/1999/xlink" x="0px" y="0px"
	 viewBox="0 0 313 252" style="enable-background:new 0 0 313 252;" xml:space="preserve">
<style type="text/css">
	.st0{fill:#30368A;}
	.st1{fill:none;stroke:#30368A;stroke-width:0.9214;stroke-linecap:round;stroke-linejoin:round;stroke-miterlimit:10;}
</style>
<g>
	<path class="st0" d="M221.8,128.6L221.8,128.6c-4.1,0.8-8.2-1.9-9-6l-10-50.6c-0.8-4.1,1.9-8.2,6-9l0,0c4.1-0.8,8.2,1.9,9,6
		l10,50.6C228.6,123.7,225.9,127.8,221.8,128.6z"/>
	<g>
		<path class="st1" d="M15.7,220.3c0.6,3,1.3,6,1.9,9c0.7,3.9,1.6,7.8,2.3,11.8c0.2,1.4,0.7,2.8,0.9,4.3c0.1,0.6,0.5,0.9,0.5,1.6
			c20.6-4.1,41.1-8.2,61.5-12.2c-0.6-4.9-1.8-9.4-2.6-14"/>
		<path class="st1" d="M231.1,167.7c-0.9-0.1-1.6-0.8-2-1.4c-1.3-1.8-3-3.1-4.7-4.2c-3-2-5.7-4.4-9-5.8c-6.2-2.8-12.5-5.1-19.2-6.5
			c-4-0.8-8-1.4-12-1.9c-6.3-0.8-12.5-0.6-18.8-0.5c-5.2,0.1-10.3,0.7-15.4,1.2c-1.7,0.2-3.4,0.5-5,0.8"/>
		<path class="st1" d="M202.5,37.9c-1.8,1.9-3.1,4.2-4.7,6.3c-3.5,4.8-7.6,9-12,12.9c-4.5,3.9-9.5,7.3-14.7,10.2
			c-5.4,3.1-11.1,5.7-17,7.9c-7.1,2.7-14.3,5-21.6,7.3c-0.4,0.1-0.7,0-1.1,0.1"/>
		<path class="st1" d="M230.7,82.4c-2.1-3.5-2.3-7.6-3.1-11.5c-1.3-6-2.4-12.1-3.7-18.1c-1-4.9-2-9.9-3-14.8c-0.3-1.4-0.6-2.9-1-4.3
			c-0.8-2.8-3.2-4.6-6.1-4.2c-2.3,0.3-4.6,0.6-6.8,1.4c-2.7,0.9-4.7,3.6-4.6,6.3c0,1.1,0.8,1.8,1,2.8c0.9,5.2,2,10.4,3.1,15.6
			c0.2,1.1,0.5,2.1,0.8,3.2"/>
		<path class="st1" d="M76.8,95.6c-1.5,2.1-2.7,4.3-2.9,6.9c-0.2,1.6,0.4,3.2,0.6,4.7c1.1,6.3,2.5,12.5,3.7,18.8
			c1.1,5.6,2.2,11.3,3.5,16.9c0.6,2.4,1.1,4.8,1.6,7.3c0.3,1.5,0.9,2.9,2.1,3.9c1.3,1.2,2.7,2.3,3.7,3.7c1,1.2,2.2,1.1,3.2,0.7
			c0.9-0.4,1-1.8,0.8-2.8c-1.5-7.6-3.2-15.1-4.7-22.7c-1.2-6-2.2-12.1-3.5-18.1c-1-5-1.9-10.1-3.1-15.1c-0.4-1.7-0.8-3.4-1.2-5.1
			c-0.3-1.2-0.5-2.8-0.2-4c0.5-1.8,1.9-2.9,3.9-3.3c7.6-1.5,15.1-3.1,22.7-4.6c6.3-1.2,12.7-2.4,19.1-3.6c2.1-0.4,4.8,1.4,5.2,3.5
			c1.3,6.6,2.5,13.2,3.8,19.9c2.2,10.8,4.5,21.5,6.6,32.3c0.9,4.4,1.8,8.8,2.5,13.2c0.1,0.6,0.6,0.9,0.6,1.6c-0.1,3-1,4.4-4,5
			c-6.2,1.4-12.3,3-18.6,3.6c-0.6,0.1-1.1,0.4-1.6,0.6"/>
		<path class="st1" d="M80.1,168c-0.2,0.2-0.2,0.6-0.6,0.6c-3.2,0.4-6.3,1.4-9.5,1.9c-6.6,1-13,2.5-19.5,3.8c-9.9,1.9-19.9,4-29.8,6
			c-2.2,0.4-4.4,0.9-6.6,1.2c-0.6,0.1-1.1,0.3-1.6,0.7"/>
		<path class="st1" d="M79.8,168.8c0.9,2.4,1.2,5,1.7,7.6c1.2,5.6,2.2,11.2,3.3,16.9c1.4,7.1,2.8,14.3,4.3,21.4c0.2,1,0.4,2,0.6,3
			c0.2,0.8,0.6,1.5,1.6,1.4c3.1-0.3,6,0.7,8.6,2c3.3,1.7,6.7,2,10.1,1.8c2.8-0.2,5.7-0.7,8.5-1.1"/>
		<path class="st1" d="M109.5,176.7c1.1,0,1.1,1.1,1.2,1.7c1.4,7.4,2.9,14.7,4.4,22.1c1.3,6.3,2.4,12.5,3.8,18.8
			c0.3,1.6,0.2,3.3,1.5,4.7c1.1,1.2,2.5,1.7,4,1.4c4.6-0.9,9.1-1.9,13.7-2.8c1.3-0.3,2.5-0.5,3.8-0.8c0.9-0.2,1.6-0.7,2.2-1.3
			c0.7-0.7,1.5-1.4,2.4-2"/>
		<path class="st1" d="M268.2,16.7c-3.3,8.5-6.5,16.9-9.8,25.4c-1.9,4.8-3.8,9.6-5.7,14.3c-0.2,0.4-0.2,0.8-0.3,1.3"/>
		<path class="st1" d="M301.1,83.3c-7.4,1.5-14.8,2.9-22.2,4.4c-5.1,1-10.2,2-15.3,3"/>
		<path class="st1" d="M134.5,189.2c-1.1-1-2.4-1.6-3.5-2.5c-3.9-3.1-3.4-6.1-0.9-9.6c0.5-0.8,1.3-1.4,1.7-2.2
			c0.2-0.4,0.6-0.7,1.1-0.6c3.5,0.4,6.6-1.1,9.9-1.6c2-0.3,4.1-0.5,6-1.2c1.1-0.4,2.4-0.7,3.1-1.6c1.3-1.8,2.3-3.9,2.1-6.3
			c-0.3-3.1-2.8-5.3-6.3-5.7c-3.3-0.4-6.5,0.6-9.8,1.1c-1.5,0.3-3,0.8-4.6,1.1c-2.1,0.3-3.4,1.8-4.7,3.2c-0.6,0.6-1.1,1.3-1.8,1.9
			c-0.3,0.2-0.4,0.6-0.4,0.7c0.3,1.6-0.4,3.3,1.2,4.6c1.6,1.3,3,2.7,4.4,4.1"/>
		<path class="st1" d="M147.4,216c1.8-0.5,3.6-1,5.2-2c3.1-2,3.8-4.1,2.7-7.7c-0.5-1.6-1.4-2.9-2.2-4.2c-1-1.6-2.5-1.1-3.9-1.1
			c-2.4-0.1-4.6,0.9-6.9,1.3c-0.6,0.1-1.3,0.2-1.9,0.3c-1.2,0.1-2.5-0.4-3.4,0.5c-1.5,1.5-2.6,3.3-3,5.5c-0.7,3.8,0.7,6.3,5.5,7.5
			c1.9,0.5,3.8,0.7,5.7,1.2c1.2,0.3,1.6-0.5,2.4-1"/>
		<path class="st1" d="M266,126c0.4,0.5,0.7,1,1.1,1.4c5.1,5.3,10.3,10.6,15.4,15.9c4.7,4.8,9.4,9.7,14,14.5"/>
		<path class="st1" d="M236.5,111.2c-1.2-0.5-1.2-1.6-1.4-2.5c-1.1-5.1-2-10.2-3-15.3c-0.6-3-1.1-6-1.7-9c-0.2-1-0.1-2,1-2.1
			c3.9-0.6,6.3,4.4,7.5,7.3c2.6,5.9,4.3,14.9,0.2,20.5c-3,1.2-3.3,1.8-2.5,5.4c2,9.8,4,19.5,5.8,29.3c1,5.4,1.9,10.9,3.2,16.2
			c0.5,2-1.6,5-3.9,5.5c-2.5,0.5-4.9,1-7.4,1.4c-0.5,0.1-1.1,0.1-1.7-0.1c-0.2-0.1-0.9-0.5-1.1,0.3"/>
		<path class="st1" d="M9.2,187.2c1.4,7,2.7,14,4.1,21c0.3,1.7,0.7,3.4,1.1,5"/>
		<path class="st1" d="M71.8,186.6c-0.7-0.7-1.4-1.3-2-2.1c-1.1-1.2-1-3.2,0-4.4c0.8-0.9,2.9-1.3,3.9-0.7c1.6,0.9,2.3,2.7,1.6,4.3
			c-0.5,1.2-0.7,2.5-1.6,3.5c-0.8,0.9-0.1,1.8,0,2.7c1.3,7,2.8,14,4.2,21c0.2,0.9-0.2,1.5-0.5,2.2c-0.6,1.3-1.1,2.6-1.1,4.1
			c0,1.6,0.7,2.7,2.5,3.2c1.5,0.3,2.7-0.2,3.6-1.6c0.6-1,0.4-2.7-0.6-3.8c-0.6-0.6-1.2-1.2-1.7-1.7"/>
		<path class="st1" d="M126.5,165.3c-1.8-1.9-3.6-3.8-5.5-5.6c-0.6-0.6-1.1-1-1.8-1.4c-2.2-1-4.4-1.9-6.4-3.2
			c-2.9-1.8-5.8-1.4-8.2,0.5c-2.6,2-5,4.3-7,6.8c-4,4.9-8.8,8.8-14.1,12.1c0,0-0.1,0-0.2,0"/>
		<path class="st1" d="M152.2,170.2c1.4,1,3.2,1.5,4.6,2.7c1.1,0.9,2.1,1.9,2.7,3.3c0.9,2.3-0.3,4.2-1.4,6c-0.8,1.1-1.8,2.1-2.6,3.2
			c-0.3,0.4-0.5,0.1-0.8,0.2c-3.3,0.4-6.6,0.7-9.9,1.4c-2.7,0.5-5.4,1.5-8.2,1.8c-1,0.1-1.8,0.6-2.4,1.7c-0.7,1.2-1.5,2.4-2,3.8
			c-0.8,2.3,0,4.2,1.6,5.8c1,1,2.3,1.8,3.4,2.7"/>
		<path class="st1" d="M299.1,157.2c-1.4,0.2-2.6,0.7-2.8,2.3c-0.2,1.3-0.3,2.8,1.1,3.6c1.1,0.7,2.3,0.9,3.6,0.2
			c1.5-0.8,1.6-2,1.6-3.3c-0.1-1.4-0.9-2.2-2.2-2.7c-0.3-0.1-0.7-0.1-1.1-0.2"/>
		<path class="st1" d="M155.3,185.6c0.6,1.2,2,1.8,2.9,2.8c2.5,2.6,1.6,6.6-0.4,8.7c-1.2,1.2-2.4,2.3-4.1,2.7
			c-0.5,0.1-1,0.3-1.3,0.8"/>
		<path class="st1" d="M221.8,132.2c0.9,4.7,1.9,9.5,2.8,14.2c1,4.9,1.9,9.8,2.9,14.7c0.2,0.9,0,1.6-0.3,2.4"/>
		<path class="st1" d="M111.7,168.9c0.7,2.4,2.8,3.3,4.8,4c4,1.5,7,0.6,9.4-2.8c0.2-0.3,0.3-0.7,0.7-0.8"/>
		<path class="st1" d="M252.3,57.6c-0.3,0.3-0.6,0.1-0.9,0.1c-1.9,0.1-3,0.9-3.3,2.7c-0.2,1.4,0.7,3,2,3.5c1.6,0.5,3.2,0,3.9-1.3
			c0.9-1.6,0.6-3.3-0.8-4.4c-0.2-0.2-0.5-0.3-0.8-0.5"/>
		<path class="st1" d="M260.1,88.4c-2.5,0.6-3.7,2.7-2.8,4.7c0.6,1.4,2.1,2.1,3.6,1.8c1.7-0.4,2.6-1.5,2.7-3.2
			c0-1.6-0.9-2.8-2.5-3.2c-0.3-0.1-0.5-0.1-0.8-0.2"/>
		<path class="st1" d="M263.3,120.1c-1.8,0.3-2.8,1.1-3,2.4c-0.2,1.4,0,2.7,1.2,3.6c0.9,0.6,3.1,0.6,4.1-0.2
			c1.4-1.1,1.4-4.4-0.3-5.2c-0.6-0.3-1.1-0.7-1.7-0.6"/>
		<path class="st1" d="M269.4,9.9c2.6,0.5,3.6,1.8,3.2,3.9c-0.4,2-1.6,2.8-3.8,2.7c-1.2-0.1-2.5-1.5-2.5-3c-0.1-2,0.7-3.1,2.7-3.5
			c0.1,0,0.2-0.1,0.3-0.2"/>
		<path class="st1" d="M308.1,82.5c-0.5-1.3-0.9-2.6-2.4-3.1c-1.4-0.5-3.1,0.1-3.9,1.5c-0.9,1.6-0.6,3,0.9,4.3c0.9,0.8,3,0.8,4-0.1
			c0.7-0.7,1.1-1.4,1.2-2.4"/>
		<path class="st1" d="M14.6,213.4c0.3,0.3,0.7,0.1,1.1,0.2c1.7,0.3,2.8,1.5,2.8,3.2c0,1.6-1.3,3.2-2.8,3.5c-1,0.2-3-1-3.5-2
			c-0.6-1.3-0.3-2.9,0.8-3.8c0.4-0.4,0.9-0.6,1.4-1"/>
		<path class="st1" d="M9.2,180.1c-2.5,0.6-3.6,2-3.2,4.1c0.4,1.6,2.2,2.9,3.6,2.5c2.1-0.6,3.5-2.8,2.8-4.4c-0.5-1-1.3-1.9-2.6-2.1
			c-0.5,0-0.7-0.2-0.6-0.6"/>
		<path class="st1" d="M90.5,219.2c-0.6,1.5,0.1,2.9,0.3,4.3c0.3,1.4,0.1,1.8-1.3,2.1c-2.6,0.5-5.3,1-7.9,1.6"/>
		<path class="st1" d="M70.1,170.8c0.6,2.7,1.2,5.4,1.7,8"/>
		<path class="st1" d="M111.5,170.3c-0.9,2-1.4,4-1.7,6.1"/>
		<path class="st1" d="M109.3,176.9c-1.4,1.6-1.7,3.8-2.8,5.5"/>
		<path class="st1" d="M92.6,158.7c0.5,1.1,1.6,1.8,1.9,3"/>
		<path class="st1" d="M80.1,94.5c-0.8,0.4-1.7,0.3-2.5,0.3"/>
	</g>
	<circle class="st1" cx="208.6" cy="63.1" r="4.4"/>
	<circle class="st1" cx="220.9" cy="127.7" r="4.4"/>
	<path class="st0" d="M79.3,215.8L79.3,215.8c-1.8,0.4-3.6-0.8-4-2.6l-5.2-25c-0.4-1.8,0.8-3.6,2.6-4h0c1.8-0.4,3.6,0.8,4,2.6
		l5.2,25C82.3,213.6,81.1,215.4,79.3,215.8z"/>
</g>
</svg>
